<svg width="64" height="64" viewBox="0 0 64 64" fill="none" xmlns="http://www.w3.org/2000/svg">
<path d="M32 3.87397C31.9681 3.87379 31.9365 3.86724 31.9071 3.8547C31.8778 3.84217 31.8512 3.8239 31.829 3.80097C31.2 3.16597 28.716 1.32097 22 2.99997C13.949 5.01297 4 14.548 4 36C4 57.452 20.5 62 26 62C30.032 62 31.378 60.923 31.808 60.35C31.8299 60.3194 31.8587 60.2944 31.892 60.277C31.9254 60.2596 31.9624 60.2504 32 60.25" fill="#CF9595"/>
<path opacity="0.16" d="M11 31C11 17.686 14.833 8.96501 19.666 3.78101C12.15 6.93101 4 16.584 4 36C4 57.452 20.5 62 26 62C30.032 62 31.378 60.923 31.808 60.35C31.8299 60.3194 31.8587 60.2944 31.892 60.277C31.9254 60.2596 31.9624 60.2504 32 60.25V56.95C25.746 56.45 11 51.28 11 31Z" fill="#40436D"/>
<path d="M42 3C35.284 1.321 32.8 3.166 32.171 3.8C32.1489 3.82311 32.1223 3.84156 32.093 3.85427C32.0636 3.86698 32.032 3.87368 32 3.874V60.254C32.0376 60.2544 32.0746 60.2636 32.108 60.281C32.1413 60.2984 32.1701 60.3234 32.192 60.354C32.622 60.923 33.968 62 38 62C43.5 62 60 57.452 60 36C60 14.548 50.051 5.013 42 3Z" fill="#F7CEB4"/>
<path opacity="0.16" d="M32.171 3.8C32.1489 3.82311 32.1223 3.84156 32.093 3.85427C32.0636 3.86698 32.032 3.87368 32 3.874V60.254C32.0376 60.2544 32.0746 60.2636 32.108 60.281C32.1413 60.2984 32.1701 60.3234 32.192 60.354C32.622 60.923 33.968 62 38 62C41.8472 61.7965 45.5801 60.6214 48.8503 58.5845C52.1204 56.5476 54.821 53.7153 56.7 50.352C41.4 61.7 39 39 39 27C39 16.777 39.729 4.386 44.89 4.029C43.9607 3.59708 42.9932 3.2526 42 3C35.284 1.321 32.8 3.166 32.171 3.8Z" fill="#40436D"/>
<path d="M20 3.64294C21.0614 3.80937 22.035 4.33091 22.7615 5.12233C23.4881 5.91375 23.9247 6.92823 24 7.99994M10.824 10.9999C17.861 12.7069 16.011 19.0489 16.011 19.0489M13 22.9999C13 22.9999 13.187 17.9999 19 18.9999M4.13904 32.8069C7.94704 27.3409 16 28.4639 18 35.4639M13 38.9999C15 34.9999 20 33.9999 23 37.9999M19 26.9999C22.263 26.9999 26 28.9999 26 33.9999M23.808 28.6999C25.153 25.6899 29 24.9999 32 25.9999C35 24.9999 38.847 25.6899 40.192 28.6999M24 12.9999C27 13.9999 28 18.9999 26 21.9999M27.041 17.8749C27.8342 17.564 28.6815 17.4149 29.5332 17.4363C30.3848 17.4578 31.2236 17.6494 32 17.9999C32.7765 17.6494 33.6153 17.4578 34.4669 17.4363C35.3186 17.4149 36.1659 17.564 36.959 17.8749M7.81304 50.9999C11.848 50.7749 15.167 47.2559 15.167 44.2709M10 43.9999C15 42.9999 17.456 44.7539 18 47.9999M28.179 46.8119C21.179 45.8119 16.352 55.2539 22.791 61.5209M24 40.9999C28 41.9999 30 47.9999 26 51.9999M20.327 10.4139C20.5944 9.7952 21.0137 9.25404 21.5462 8.84073C22.0786 8.42742 22.7069 8.15536 23.3726 8.04981C24.0383 7.94426 24.7199 8.00865 25.3541 8.237C25.9882 8.46534 26.5544 8.85024 27 9.35594M44 3.64294C42.9386 3.80937 41.9651 4.33091 41.2385 5.12233C40.512 5.91375 40.0753 6.92823 40 7.99994M53.176 10.9999C46.139 12.7069 47.989 19.0489 47.989 19.0489M51 22.9999C51 22.9999 50.813 17.9999 45 18.9999M59.861 32.8069C56.053 27.3409 48 28.4639 46 35.4639M51 38.9999C49 34.9999 44 33.9999 41 37.9999M45 26.9999C41.737 26.9999 38 28.9999 38 33.9999M40 12.9999C37 13.9999 36 18.9999 38 21.9999M56.188 50.9999C52.153 50.7749 48.834 47.2559 48.834 44.2709M54 43.9999C49 42.9999 46.544 44.7539 46 47.9999M35.821 46.8119C42.821 45.8119 47.648 55.2539 41.209 61.5209M40 40.9999C36 41.9999 34 47.9999 38 51.9999M43.673 10.4139C43.4057 9.7952 42.9863 9.25404 42.4539 8.84073C41.9215 8.42742 41.2932 8.15536 40.6275 8.04981C39.9618 7.94426 39.2802 8.00865 38.646 8.237C38.0118 8.46534 37.4457 8.85024 37 9.35594" stroke="#40436D" stroke-width="2" stroke-miterlimit="10" stroke-linecap="round" stroke-linejoin="round"/>
<path d="M32 3.874C31.9681 3.87381 31.9365 3.86726 31.9071 3.85473C31.8778 3.84219 31.8512 3.82393 31.829 3.801C31.2 3.166 28.716 1.321 22 3C13.949 5.013 4 14.548 4 36C4 57.452 20.5 62 26 62C30.032 62 31.378 60.923 31.808 60.35C31.8299 60.3194 31.8587 60.2944 31.892 60.277C31.9254 60.2596 31.9624 60.2504 32 60.25M32 3.874C32.032 3.87368 32.0636 3.86698 32.093 3.85427C32.1223 3.84156 32.1489 3.82311 32.171 3.8C32.8 3.166 35.284 1.321 42 3C50.051 5.013 60 14.548 60 36C60 57.452 43.5 62 38 62C33.968 62 32.622 60.923 32.192 60.354C32.1701 60.3234 32.1413 60.2984 32.108 60.281C32.0746 60.2636 32.0376 60.2544 32 60.254V3.874Z" stroke="#40436D" stroke-width="2" stroke-miterlimit="10" stroke-linecap="round" stroke-linejoin="round"/>
</svg>
