<svg width="88" height="88" viewBox="0 0 88 88" fill="none" xmlns="http://www.w3.org/2000/svg">
<path d="M44 6C48.9902 6 53.9316 6.9829 58.542 8.89258C63.1523 10.8023 67.3414 13.6013 70.8701 17.1299C74.3987 20.6586 77.1977 24.8477 79.1074 29.458C81.0171 34.0684 82 39.0098 82 44C82 48.9902 81.0171 53.9316 79.1074 58.542C77.1977 63.1524 74.3987 67.3414 70.8701 70.8701C67.3414 74.3987 63.1523 77.1977 58.542 79.1074C53.9316 81.0171 48.9902 82 44 82C39.0098 82 34.0684 81.0171 29.458 79.1074C24.8476 77.1977 20.6586 74.3987 17.1299 70.87C13.6013 67.3414 10.8022 63.1523 8.89257 58.542C6.98289 53.9316 6 48.9902 6 44C6 39.0097 6.9829 34.0684 8.89259 29.458C10.8023 24.8476 13.6013 20.6586 17.13 17.1299C20.6586 13.6013 24.8477 10.8022 29.4581 8.89257C34.0684 6.98289 39.0098 6 44 6L44 6Z" stroke="black" stroke-opacity="0.4" stroke-width="12" stroke-linecap="round" stroke-linejoin="round"/>
<path d="M44 6C51.6154 6 59.0551 8.28812 65.3543 12.5676C71.6535 16.8471 76.5216 22.9206 79.3272 30.0003C82.1328 37.08 82.7465 44.8394 81.0887 52.2722C79.4309 59.7049 75.5781 66.4681 70.03 71.6846C64.4819 76.9012 57.4944 80.3304 49.9737 81.5275C42.453 82.7247 34.7461 81.6345 27.8524 78.3985C20.9588 75.1624 15.1965 69.9298 11.3129 63.3791C7.42919 56.8285 5.60332 49.262 6.07205 41.6611" stroke="#737FFF" stroke-width="12" stroke-linecap="round" stroke-linejoin="round"/>
</svg>
