<svg width="64" height="64" viewBox="0 0 64 64" fill="none" xmlns="http://www.w3.org/2000/svg">
<path d="M32 4.32353C35.6345 4.32353 39.2335 5.0394 42.5913 6.43028C45.9492 7.82115 49.0002 9.85978 51.5702 12.4298C54.1402 14.9998 56.1789 18.0508 57.5697 21.4087C58.9606 24.7665 59.6765 28.3655 59.6765 32C59.6765 35.6345 58.9606 39.2335 57.5697 42.5913C56.1788 45.9492 54.1402 49.0002 51.5702 51.5702C49.0002 54.1402 45.9492 56.1789 42.5913 57.5697C39.2335 58.9606 35.6345 59.6765 32 59.6765C28.3655 59.6765 24.7665 58.9606 21.4087 57.5697C18.0508 56.1788 14.9998 54.1402 12.4298 51.5702C9.85977 49.0002 7.82114 45.9492 6.43027 42.5913C5.0394 39.2334 4.32353 35.6345 4.32353 32C4.32353 28.3655 5.03941 24.7665 6.43028 21.4087C7.82116 18.0508 9.85979 14.9998 12.4298 12.4298C14.9998 9.85977 18.0508 7.82114 21.4087 6.43027C24.7666 5.0394 28.3655 4.32353 32 4.32353L32 4.32353Z" stroke="#F1F2FF" stroke-width="8.64706" stroke-linecap="round" stroke-linejoin="round"/>
<path d="M32 4.32353C37.5465 4.32353 42.965 5.99003 47.5529 9.10691C52.1408 12.2238 55.6864 16.6473 57.7298 21.8036C59.7732 26.96 60.2201 32.6114 59.0127 38.0248C57.8053 43.4383 54.9992 48.3642 50.9584 52.1635C46.9175 55.9629 41.8283 58.4604 36.3508 59.3324C30.8732 60.2043 25.2601 59.4103 20.2393 57.0534C15.2185 54.6965 11.0216 50.8854 8.19303 46.1144C5.36445 41.3433 4.03462 35.8325 4.376 30.2965" stroke="#737FFF" stroke-width="8.64706" stroke-linecap="round" stroke-linejoin="round"/>
</svg>
