<svg width="64" height="64" viewBox="0 0 64 64" fill="none" xmlns="http://www.w3.org/2000/svg">
<path d="M14 62C14 58.1714 15.521 55.326 17.8867 53.1064C20.2125 50.9245 23.3492 49.3512 26.5957 47.9717C27.104 47.7557 27.6912 47.9927 27.9072 48.501C28.1232 49.0093 27.8862 49.5965 27.3779 49.8125C24.1645 51.178 21.3075 52.6388 19.2549 54.5645C17.2423 56.4526 16 58.7887 16 62C16 62.5523 15.5523 63 15 63C14.4477 63 14 62.5523 14 62ZM46 32C46 27.5794 44.1715 24.6559 41.3779 22.4375C38.5213 20.169 34.6727 18.6507 30.6484 17.1416C26.6977 15.6601 22.5524 14.1807 19.4229 11.9717C16.2239 9.71359 14 6.63373 14 2C14 1.44772 14.4477 1 15 1C15.5523 1 16 1.44772 16 2C16 5.83671 17.7762 8.35976 20.5771 10.3369C23.4475 12.363 27.3025 13.7511 31.3516 15.2695C35.3271 16.7604 39.4788 18.3749 42.6221 20.8711C45.8285 23.4174 48 26.8911 48 32C48 36.7852 45.8017 40.0789 42.6113 42.542C39.4793 44.96 35.3384 46.618 31.3691 48.1943C30.8558 48.3982 30.2742 48.1471 30.0703 47.6338C29.8668 47.1206 30.1178 46.5398 30.6309 46.3359C34.6614 44.7353 38.5208 43.173 41.3887 40.959C44.1983 38.7898 46 36.0388 46 32Z" fill="#737FFF"/>
<path d="M46 62C46 58.1566 44.2166 55.5395 41.4033 53.4502C38.5308 51.317 34.6695 49.7979 30.6309 48.1943C26.6616 46.6183 22.5207 44.9601 19.3887 42.542C16.1984 40.0789 14 36.785 14 32C14 27.7695 15.4908 24.6409 17.8604 22.2314C20.1941 19.8585 23.3434 18.2203 26.6064 16.8516C27.1155 16.6382 27.7013 16.8778 27.915 17.3867C28.1287 17.896 27.8892 18.4827 27.3799 18.6963C24.1801 20.0385 21.3332 21.5523 19.2861 23.6338C17.2749 25.6788 16 28.3075 16 32C16 36.0385 17.8017 38.7888 20.6113 40.958C23.4793 43.1722 27.3385 44.7345 31.3691 46.335C35.3305 47.9079 39.4692 49.5221 42.5967 51.8447C45.7831 54.2113 48 57.3731 48 62C48 62.5523 47.5523 63 47 63C46.4477 63 46 62.5523 46 62ZM46 2C46 1.44772 46.4477 1 47 1C47.5523 1 48 1.44772 48 2C48 6.63389 45.776 9.71359 42.5771 11.9717C39.4476 14.1808 35.3023 15.661 31.3516 17.1426C30.8344 17.3365 30.2574 17.0738 30.0635 16.5566C29.8699 16.0398 30.1317 15.4635 30.6484 15.2695C34.6974 13.7512 38.5526 12.3638 41.4229 10.3379C44.2238 8.36075 46 5.83698 46 2Z" fill="#737FFF"/>
<path d="M47 31C47.5523 31 48 31.4477 48 32C48 32.5523 47.5523 33 47 33H15C14.4477 33 14 32.5523 14 32C14 31.4477 14.4477 31 15 31H47Z" fill="#737FFF"/>
<path d="M41 23C41.5523 23 42 23.4477 42 24C42 24.5523 41.5523 25 41 25H21C20.4477 25 20 24.5523 20 24C20 23.4477 20.4477 23 21 23H41Z" fill="#737FFF"/>
<path d="M44 55C44.5523 55 45 55.4477 45 56C45 56.5523 44.5523 57 44 57H18C17.4477 57 17 56.5523 17 56C17 55.4477 17.4477 55 18 55H44ZM43 7C43.5523 7 44 7.44772 44 8C44 8.55228 43.5523 9 43 9H19C18.4477 9 18 8.55228 18 8C18 7.44772 18.4477 7 19 7H43Z" fill="#737FFF"/>
<path d="M41 39C41.5523 39 42 39.4477 42 40C42 40.5523 41.5523 41 41 41H21C20.4477 41 20 40.5523 20 40C20 39.4477 20.4477 39 21 39H41Z" fill="#737FFF"/>
</svg>
