<svg width="372" height="196" viewBox="0 0 372 196" fill="none" xmlns="http://www.w3.org/2000/svg">
<path d="M99.2915 37.2829V27.2029H105.731V28.5819H100.755V31.4099H104.892V32.7889H100.755V35.9039H105.731V37.2829H99.2915Z" fill="#66698A"/>
<path d="M86.8232 37.2829V27.2029H88.1462L91.8002 34.7839L95.4332 27.2029H96.7702V37.2759H95.3842V30.3809L92.1292 37.2829H91.4642L88.2022 30.3809V37.2829H86.8232Z" fill="#66698A"/>
<path d="M76.3484 37.2829L79.6244 27.2029H81.7314L85.0074 37.2829H83.4884L80.4714 28.0849H80.8494L77.8674 37.2829H76.3484ZM78.0494 35.0079V33.6359H83.3134V35.0079H78.0494Z" fill="#66698A"/>
<path d="M66.6035 37.2829V27.2029H68.0875L73.0505 34.6929V27.2029H74.5345V37.2829H73.0505L68.0875 29.7859V37.2829H66.6035Z" fill="#66698A"/>
<path d="M53.8056 37.2829V28.5819H50.4526V27.2029H58.6216V28.5819H55.2686V37.2829H53.8056Z" fill="#66698A"/>
<path d="M45.3769 37.493C44.6536 37.493 44.0002 37.3693 43.4169 37.122C42.8382 36.87 42.3599 36.513 41.9819 36.051C41.6086 35.5843 41.3659 35.0313 41.2539 34.392L42.7799 34.161C42.9339 34.777 43.2559 35.2577 43.7459 35.603C44.2359 35.9437 44.8076 36.114 45.4609 36.114C45.8669 36.114 46.2402 36.051 46.5809 35.925C46.9216 35.7943 47.1946 35.61 47.3999 35.372C47.6099 35.1293 47.7149 34.84 47.7149 34.504C47.7149 34.322 47.6822 34.161 47.6169 34.021C47.5562 33.881 47.4699 33.7597 47.3579 33.657C47.2506 33.5497 47.1176 33.4587 46.9589 33.384C46.8049 33.3047 46.6346 33.237 46.4479 33.181L43.8649 32.418C43.6129 32.3433 43.3562 32.2477 43.0949 32.131C42.8336 32.0097 42.5932 31.8533 42.3739 31.662C42.1592 31.466 41.9842 31.2257 41.8489 30.941C41.7136 30.6517 41.6459 30.3017 41.6459 29.891C41.6459 29.2703 41.8046 28.7453 42.1219 28.316C42.4439 27.882 42.8779 27.5553 43.4239 27.336C43.9699 27.112 44.5812 27 45.2579 27C45.9392 27.0093 46.5482 27.1307 47.0849 27.364C47.6262 27.5973 48.0742 27.9333 48.4289 28.372C48.7882 28.806 49.0356 29.3333 49.1709 29.954L47.6029 30.22C47.5329 29.842 47.3836 29.5177 47.1549 29.247C46.9262 28.9717 46.6462 28.7617 46.3149 28.617C45.9836 28.4677 45.6242 28.3907 45.2369 28.386C44.8636 28.3767 44.5206 28.4327 44.2079 28.554C43.8999 28.6753 43.6526 28.8457 43.4659 29.065C43.2839 29.2843 43.1929 29.5363 43.1929 29.821C43.1929 30.101 43.2746 30.3273 43.4379 30.5C43.6012 30.6727 43.8019 30.8103 44.0399 30.913C44.2826 31.011 44.5229 31.0927 44.7609 31.158L46.6229 31.683C46.8562 31.7483 47.1199 31.837 47.4139 31.949C47.7126 32.0563 47.9996 32.208 48.2749 32.404C48.5549 32.6 48.7859 32.8613 48.9679 33.188C49.1499 33.51 49.2409 33.916 49.2409 34.406C49.2409 34.9147 49.1382 35.3627 48.9329 35.75C48.7276 36.1327 48.4452 36.4547 48.0859 36.716C47.7312 36.9727 47.3206 37.1663 46.8539 37.297C46.3872 37.4277 45.8949 37.493 45.3769 37.493Z" fill="#66698A"/>
<path d="M32.0576 37.2829V27.2029H36.1316C36.2296 27.2029 36.351 27.2075 36.4956 27.2169C36.6403 27.2215 36.778 27.2355 36.9086 27.2589C37.4686 27.3475 37.9353 27.5389 38.3086 27.8329C38.6866 28.1269 38.969 28.4979 39.1556 28.9459C39.3423 29.3939 39.4356 29.8885 39.4356 30.4299C39.4356 31.2325 39.2303 31.9255 38.8196 32.5089C38.409 33.0875 37.793 33.4492 36.9716 33.5939L36.3766 33.6639H33.5206V37.2829H32.0576ZM37.9516 37.2829L35.9636 33.1809L37.4406 32.8029L39.6246 37.2829H37.9516ZM33.5206 32.2779H36.0756C36.169 32.2779 36.2716 32.2732 36.3836 32.2639C36.5003 32.2545 36.61 32.2382 36.7126 32.2149C37.0113 32.1449 37.2516 32.0165 37.4336 31.8299C37.6156 31.6385 37.7463 31.4192 37.8256 31.1719C37.905 30.9245 37.9446 30.6772 37.9446 30.4299C37.9446 30.1825 37.905 29.9375 37.8256 29.6949C37.7463 29.4475 37.6156 29.2305 37.4336 29.0439C37.2516 28.8525 37.0113 28.7219 36.7126 28.6519C36.61 28.6239 36.5003 28.6052 36.3836 28.5959C36.2716 28.5865 36.169 28.5819 36.0756 28.5819H33.5206V32.2779Z" fill="#66698A"/>
<path d="M27.9324 37.2829V27.2029H29.3954V37.2829H27.9324Z" fill="#66698A"/>
<path d="M20 37.2829V27.2029H25.971V28.6659H21.463V31.5079H25.131V32.9779H21.463V37.2829H20Z" fill="#66698A"/>
<path d="M20 47.4929C20 45.2838 21.7909 43.4929 24 43.4929H303C305.209 43.4929 307 45.2838 307 47.4929V47.4929C307 49.7021 305.209 51.4929 303 51.4929H24C21.7909 51.4929 20 49.7021 20 47.4929V47.4929Z" fill="#F2E6DE"/>
<path d="M206.845 91.2829V81.2029H213.285V82.5819H208.308V85.4099H212.445V86.7889H208.308V89.9039H213.285V91.2829H206.845Z" fill="#66698A"/>
<path d="M194.377 91.2829V81.2029H195.7L199.354 88.7839L202.987 81.2029H204.324V91.2759H202.938V84.3809L199.683 91.2829H199.018L195.756 84.3809V91.2829H194.377Z" fill="#66698A"/>
<path d="M183.902 91.2829L187.178 81.2029H189.285L192.561 91.2829H191.042L188.025 82.0849H188.403L185.421 91.2829H183.902ZM185.603 89.0079V87.6359H190.867V89.0079H185.603Z" fill="#66698A"/>
<path d="M174.157 91.2829V81.2029H175.641L180.604 88.6929V81.2029H182.088V91.2829H180.604L175.641 83.7859V91.2829H174.157Z" fill="#66698A"/>
<path d="M161.36 91.2829V82.5819H158.007V81.2029H166.176V82.5819H162.823V91.2829H161.36Z" fill="#66698A"/>
<path d="M152.931 91.493C152.208 91.493 151.554 91.3693 150.971 91.122C150.392 90.87 149.914 90.513 149.536 90.051C149.163 89.5843 148.92 89.0313 148.808 88.392L150.334 88.161C150.488 88.777 150.81 89.2577 151.3 89.603C151.79 89.9437 152.362 90.114 153.015 90.114C153.421 90.114 153.794 90.051 154.135 89.925C154.476 89.7943 154.749 89.61 154.954 89.372C155.164 89.1293 155.269 88.84 155.269 88.504C155.269 88.322 155.236 88.161 155.171 88.021C155.11 87.881 155.024 87.7597 154.912 87.657C154.805 87.5497 154.672 87.4587 154.513 87.384C154.359 87.3047 154.189 87.237 154.002 87.181L151.419 86.418C151.167 86.3433 150.91 86.2477 150.649 86.131C150.388 86.0097 150.147 85.8533 149.928 85.662C149.713 85.466 149.538 85.2257 149.403 84.941C149.268 84.6517 149.2 84.3017 149.2 83.891C149.2 83.2703 149.359 82.7453 149.676 82.316C149.998 81.882 150.432 81.5553 150.978 81.336C151.524 81.112 152.135 81 152.812 81C153.493 81.0093 154.102 81.1307 154.639 81.364C155.18 81.5973 155.628 81.9333 155.983 82.372C156.342 82.806 156.59 83.3333 156.725 83.954L155.157 84.22C155.087 83.842 154.938 83.5177 154.709 83.247C154.48 82.9717 154.2 82.7617 153.869 82.617C153.538 82.4677 153.178 82.3907 152.791 82.386C152.418 82.3767 152.075 82.4327 151.762 82.554C151.454 82.6753 151.207 82.8457 151.02 83.065C150.838 83.2843 150.747 83.5363 150.747 83.821C150.747 84.101 150.829 84.3273 150.992 84.5C151.155 84.6727 151.356 84.8103 151.594 84.913C151.837 85.011 152.077 85.0927 152.315 85.158L154.177 85.683C154.41 85.7483 154.674 85.837 154.968 85.949C155.267 86.0563 155.554 86.208 155.829 86.404C156.109 86.6 156.34 86.8613 156.522 87.188C156.704 87.51 156.795 87.916 156.795 88.406C156.795 88.9147 156.692 89.3627 156.487 89.75C156.282 90.1327 155.999 90.4547 155.64 90.716C155.285 90.9727 154.875 91.1663 154.408 91.297C153.941 91.4277 153.449 91.493 152.931 91.493Z" fill="#66698A"/>
<path d="M139.075 91.2829L142.351 81.2029H144.458L147.734 91.2829H146.215L143.198 82.0849H143.576L140.594 91.2829H139.075ZM140.776 89.0079V87.6359H146.04V89.0079H140.776Z" fill="#66698A"/>
<path d="M132 91.2829V81.2029H133.463V89.9039H138.027V91.2829H132Z" fill="#66698A"/>
<path d="M132 101.493C132 99.2838 133.791 97.4929 136 97.4929H325C327.209 97.4929 329 99.2838 329 101.493V101.493C329 103.702 327.209 105.493 325 105.493H136C133.791 105.493 132 103.702 132 101.493V101.493Z" fill="#F2E6DE"/>
<path d="M156.944 145.493C156.22 145.493 155.567 145.369 154.984 145.122C154.405 144.87 153.927 144.513 153.549 144.051C153.175 143.584 152.933 143.031 152.821 142.392L154.347 142.161C154.501 142.777 154.823 143.258 155.313 143.603C155.803 143.944 156.374 144.114 157.028 144.114C157.434 144.114 157.807 144.051 158.148 143.925C158.488 143.794 158.761 143.61 158.967 143.372C159.177 143.129 159.282 142.84 159.282 142.504C159.282 142.322 159.249 142.161 159.184 142.021C159.123 141.881 159.037 141.76 158.925 141.657C158.817 141.55 158.684 141.459 158.526 141.384C158.372 141.305 158.201 141.237 158.015 141.181L155.432 140.418C155.18 140.343 154.923 140.248 154.662 140.131C154.4 140.01 154.16 139.853 153.941 139.662C153.726 139.466 153.551 139.226 153.416 138.941C153.28 138.652 153.213 138.302 153.213 137.891C153.213 137.27 153.371 136.745 153.689 136.316C154.011 135.882 154.445 135.555 154.991 135.336C155.537 135.112 156.148 135 156.825 135C157.506 135.009 158.115 135.131 158.652 135.364C159.193 135.597 159.641 135.933 159.996 136.372C160.355 136.806 160.602 137.333 160.738 137.954L159.17 138.22C159.1 137.842 158.95 137.518 158.722 137.247C158.493 136.972 158.213 136.762 157.882 136.617C157.55 136.468 157.191 136.391 156.804 136.386C156.43 136.377 156.087 136.433 155.775 136.554C155.467 136.675 155.219 136.846 155.033 137.065C154.851 137.284 154.76 137.536 154.76 137.821C154.76 138.101 154.841 138.327 155.005 138.5C155.168 138.673 155.369 138.81 155.607 138.913C155.849 139.011 156.09 139.093 156.328 139.158L158.19 139.683C158.423 139.748 158.687 139.837 158.981 139.949C159.279 140.056 159.566 140.208 159.842 140.404C160.122 140.6 160.353 140.861 160.535 141.188C160.717 141.51 160.808 141.916 160.808 142.406C160.808 142.915 160.705 143.363 160.5 143.75C160.294 144.133 160.012 144.455 159.653 144.716C159.298 144.973 158.887 145.166 158.421 145.297C157.954 145.428 157.462 145.493 156.944 145.493Z" fill="#66698A"/>
<path d="M147.169 145.493C146.446 145.493 145.792 145.369 145.209 145.122C144.63 144.87 144.152 144.513 143.774 144.051C143.401 143.584 143.158 143.031 143.046 142.392L144.572 142.161C144.726 142.777 145.048 143.258 145.538 143.603C146.028 143.944 146.6 144.114 147.253 144.114C147.659 144.114 148.032 144.051 148.373 143.925C148.714 143.794 148.987 143.61 149.192 143.372C149.402 143.129 149.507 142.84 149.507 142.504C149.507 142.322 149.474 142.161 149.409 142.021C149.348 141.881 149.262 141.76 149.15 141.657C149.043 141.55 148.91 141.459 148.751 141.384C148.597 141.305 148.427 141.237 148.24 141.181L145.657 140.418C145.405 140.343 145.148 140.248 144.887 140.131C144.626 140.01 144.385 139.853 144.166 139.662C143.951 139.466 143.776 139.226 143.641 138.941C143.506 138.652 143.438 138.302 143.438 137.891C143.438 137.27 143.597 136.745 143.914 136.316C144.236 135.882 144.67 135.555 145.216 135.336C145.762 135.112 146.373 135 147.05 135C147.731 135.009 148.34 135.131 148.877 135.364C149.418 135.597 149.866 135.933 150.221 136.372C150.58 136.806 150.828 137.333 150.963 137.954L149.395 138.22C149.325 137.842 149.176 137.518 148.947 137.247C148.718 136.972 148.438 136.762 148.107 136.617C147.776 136.468 147.416 136.391 147.029 136.386C146.656 136.377 146.313 136.433 146 136.554C145.692 136.675 145.445 136.846 145.258 137.065C145.076 137.284 144.985 137.536 144.985 137.821C144.985 138.101 145.067 138.327 145.23 138.5C145.393 138.673 145.594 138.81 145.832 138.913C146.075 139.011 146.315 139.093 146.553 139.158L148.415 139.683C148.648 139.748 148.912 139.837 149.206 139.949C149.505 140.056 149.792 140.208 150.067 140.404C150.347 140.6 150.578 140.861 150.76 141.188C150.942 141.51 151.033 141.916 151.033 142.406C151.033 142.915 150.93 143.363 150.725 143.75C150.52 144.133 150.237 144.455 149.878 144.716C149.523 144.973 149.113 145.166 148.646 145.297C148.179 145.428 147.687 145.493 147.169 145.493Z" fill="#66698A"/>
<path d="M135.025 145.283V135.203H141.465V136.582H136.488V139.41H140.625V140.789H136.488V143.904H141.465V145.283H135.025Z" fill="#66698A"/>
<path d="M125.36 145.283V135.203H129.434C129.532 135.203 129.653 135.208 129.798 135.217C129.943 135.222 130.08 135.236 130.211 135.259C130.771 135.348 131.238 135.539 131.611 135.833C131.989 136.127 132.271 136.498 132.458 136.946C132.645 137.394 132.738 137.889 132.738 138.43C132.738 139.233 132.533 139.926 132.122 140.509C131.711 141.088 131.095 141.449 130.274 141.594L129.679 141.664H126.823V145.283H125.36ZM131.254 145.283L129.266 141.181L130.743 140.803L132.927 145.283H131.254ZM126.823 140.278H129.378C129.471 140.278 129.574 140.273 129.686 140.264C129.803 140.255 129.912 140.238 130.015 140.215C130.314 140.145 130.554 140.017 130.736 139.83C130.918 139.639 131.049 139.419 131.128 139.172C131.207 138.925 131.247 138.677 131.247 138.43C131.247 138.183 131.207 137.938 131.128 137.695C131.049 137.448 130.918 137.231 130.736 137.044C130.554 136.853 130.314 136.722 130.015 136.652C129.912 136.624 129.803 136.605 129.686 136.596C129.574 136.587 129.471 136.582 129.378 136.582H126.823V140.278Z" fill="#66698A"/>
<path d="M115.134 145.283V135.203H118.291C118.384 135.203 118.557 135.205 118.809 135.21C119.065 135.215 119.31 135.233 119.544 135.266C120.332 135.364 120.995 135.646 121.532 136.113C122.073 136.58 122.481 137.172 122.757 137.891C123.032 138.605 123.17 139.389 123.17 140.243C123.17 141.102 123.032 141.89 122.757 142.609C122.481 143.323 122.073 143.913 121.532 144.38C120.995 144.842 120.332 145.122 119.544 145.22C119.31 145.253 119.065 145.271 118.809 145.276C118.557 145.281 118.384 145.283 118.291 145.283H115.134ZM116.632 143.89H118.291C118.449 143.89 118.638 143.885 118.858 143.876C119.077 143.867 119.271 143.848 119.439 143.82C119.952 143.722 120.367 143.5 120.685 143.155C121.007 142.805 121.242 142.376 121.392 141.867C121.541 141.358 121.616 140.817 121.616 140.243C121.616 139.65 121.539 139.102 121.385 138.598C121.231 138.089 120.993 137.665 120.671 137.324C120.353 136.979 119.943 136.759 119.439 136.666C119.271 136.633 119.075 136.615 118.851 136.61C118.631 136.601 118.445 136.596 118.291 136.596H116.632V143.89Z" fill="#66698A"/>
<path d="M104.908 145.283V135.203H108.065C108.158 135.203 108.331 135.205 108.583 135.21C108.839 135.215 109.084 135.233 109.318 135.266C110.106 135.364 110.769 135.646 111.306 136.113C111.847 136.58 112.255 137.172 112.531 137.891C112.806 138.605 112.944 139.389 112.944 140.243C112.944 141.102 112.806 141.89 112.531 142.609C112.255 143.323 111.847 143.913 111.306 144.38C110.769 144.842 110.106 145.122 109.318 145.22C109.084 145.253 108.839 145.271 108.583 145.276C108.331 145.281 108.158 145.283 108.065 145.283H104.908ZM106.406 143.89H108.065C108.223 143.89 108.412 143.885 108.632 143.876C108.851 143.867 109.045 143.848 109.213 143.82C109.726 143.722 110.141 143.5 110.459 143.155C110.781 142.805 111.016 142.376 111.166 141.867C111.315 141.358 111.39 140.817 111.39 140.243C111.39 139.65 111.313 139.102 111.159 138.598C111.005 138.089 110.767 137.665 110.445 137.324C110.127 136.979 109.717 136.759 109.213 136.666C109.045 136.633 108.849 136.615 108.625 136.61C108.405 136.601 108.219 136.596 108.065 136.596H106.406V143.89Z" fill="#66698A"/>
<path d="M94.4329 145.283L97.7089 135.203H99.8159L103.092 145.283H101.573L98.5559 136.085H98.9339L95.9519 145.283H94.4329ZM96.1339 143.008V141.636H101.398V143.008H96.1339Z" fill="#66698A"/>
<path d="M81.3293 145.283V135.203H82.7923V143.904H87.3563V145.283H81.3293Z" fill="#66698A"/>
<path d="M77.0642 145.283V135.203H78.5272V145.283H77.0642Z" fill="#66698A"/>
<path d="M66.4492 145.283L69.7252 135.203H71.8322L75.1082 145.283H73.5892L70.5722 136.085H70.9502L67.9682 145.283H66.4492ZM68.1502 143.008V141.636H73.4142V143.008H68.1502Z" fill="#66698A"/>
<path d="M54.6812 145.283V135.203H56.0042L59.6582 142.784L63.2912 135.203H64.6282V145.276H63.2422V138.381L59.9872 145.283H59.3222L56.0602 138.381V145.283H54.6812Z" fill="#66698A"/>
<path d="M46 145.283V135.203H52.44V136.582H47.463V139.41H51.6V140.789H47.463V143.904H52.44V145.283H46Z" fill="#66698A"/>
<path d="M46 155.493C46 153.284 47.7909 151.493 50 151.493H219C221.209 151.493 223 153.284 223 155.493V155.493C223 157.702 221.209 159.493 219 159.493H50C47.7909 159.493 46 157.702 46 155.493V155.493Z" fill="#F2E6DE"/>
</svg>
