<svg width="372" height="196" viewBox="0 0 372 196" fill="none" xmlns="http://www.w3.org/2000/svg">
<rect x="36.3591" y="83.75" width="298.495" height="66.1603" rx="10.1651" fill="white"/>
<rect x="36.3591" y="83.75" width="298.495" height="66.1603" rx="10.1651" stroke="#ECECF0" stroke-width="1.5" stroke-dasharray="3.64 3.64"/>
<path d="M91.2694 116.83C91.2694 128.887 81.4957 138.66 69.4393 138.66C57.3828 138.66 47.6091 128.887 47.6091 116.83C47.6091 104.774 57.3828 95 69.4393 95C81.4957 95 91.2694 104.774 91.2694 116.83Z" fill="#ECECF0"/>
<path d="M61.4802 123.197V121.378C61.4805 121.001 61.7862 120.696 62.1628 120.696C62.5395 120.696 62.8452 121.001 62.8455 121.378V123.197C62.8455 123.499 62.9652 123.789 63.1785 124.002C63.3917 124.215 63.6808 124.335 63.9822 124.335H74.8972C75.1986 124.335 75.4878 124.215 75.7009 124.002C75.9142 123.789 76.0339 123.499 76.0339 123.197V121.378C76.0342 121.001 76.3399 120.696 76.7166 120.696C77.093 120.696 77.398 121.001 77.3982 121.378V123.197C77.3982 123.86 77.1347 124.497 76.6658 124.966C76.1967 125.435 75.5606 125.699 74.8972 125.699H63.9822C63.3188 125.699 62.6827 125.435 62.2136 124.966C61.7446 124.497 61.4802 123.86 61.4802 123.197ZM68.7576 120.469V111.2L65.3738 114.584C65.1074 114.85 64.6753 114.85 64.4089 114.584C64.1427 114.317 64.1427 113.885 64.4089 113.619L68.9568 109.071L69.0642 108.984C69.329 108.809 69.6885 108.838 69.9216 109.071L74.4695 113.619C74.7359 113.885 74.7359 114.317 74.4695 114.584C74.2031 114.85 73.771 114.85 73.5046 114.584L70.1218 111.201V120.469C70.1218 120.845 69.816 121.151 69.4392 121.151C69.0626 121.151 68.7576 120.845 68.7576 120.469Z" fill="#66698A"/>
<path d="M219.768 112.197H323.604V112.561H219.768V112.197Z" fill="#B0B9BF"/>
<path d="M318.889 111.505C318.156 111.505 317.523 111.323 316.99 110.96C316.461 110.596 316.051 110.101 315.76 109.475C315.474 108.845 315.331 108.136 315.331 107.35C315.331 106.56 315.476 105.854 315.767 105.233C316.058 104.607 316.471 104.115 317.004 103.756C317.543 103.392 318.181 103.21 318.918 103.21C319.66 103.21 320.284 103.392 320.788 103.756C321.297 104.115 321.681 104.607 321.938 105.233C322.2 105.859 322.331 106.564 322.331 107.35C322.331 108.136 322.2 108.842 321.938 109.468C321.676 110.094 321.29 110.591 320.781 110.96C320.271 111.323 319.641 111.505 318.889 111.505ZM319.1 110.13C319.6 110.13 320.007 110.011 320.322 109.774C320.638 109.536 320.868 109.208 321.014 108.791C321.159 108.374 321.232 107.894 321.232 107.35C321.232 106.807 321.157 106.327 321.006 105.91C320.861 105.492 320.633 105.167 320.322 104.934C320.017 104.702 319.626 104.585 319.151 104.585C318.646 104.585 318.232 104.709 317.907 104.956C317.581 105.204 317.339 105.536 317.179 105.953C317.024 106.37 316.946 106.836 316.946 107.35C316.946 107.869 317.024 108.34 317.179 108.762C317.339 109.179 317.577 109.512 317.892 109.759C318.212 110.006 318.615 110.13 319.1 110.13ZM321.232 111.287V105.633H321.057V100.809H322.585V111.287H321.232Z" fill="#737FFF"/>
<path d="M309.701 111.505C309.119 111.505 308.631 111.399 308.238 111.185C307.845 110.967 307.547 110.681 307.343 110.327C307.144 109.968 307.045 109.575 307.045 109.148C307.045 108.75 307.115 108.401 307.256 108.1C307.397 107.799 307.605 107.544 307.882 107.336C308.158 107.122 308.498 106.95 308.9 106.819C309.25 106.717 309.645 106.628 310.087 106.55C310.528 106.472 310.991 106.4 311.476 106.332C311.966 106.264 312.452 106.196 312.932 106.128L312.379 106.434C312.388 105.817 312.257 105.361 311.986 105.066C311.719 104.765 311.258 104.614 310.603 104.614C310.191 104.614 309.812 104.711 309.468 104.905C309.124 105.095 308.883 105.41 308.748 105.851L307.329 105.415C307.523 104.74 307.891 104.204 308.435 103.807C308.983 103.409 309.711 103.21 310.618 103.21C311.321 103.21 311.932 103.331 312.452 103.574C312.975 103.812 313.359 104.19 313.601 104.709C313.727 104.966 313.805 105.238 313.834 105.524C313.863 105.81 313.878 106.118 313.878 106.448V111.287H312.532V109.49L312.794 109.723C312.468 110.324 312.054 110.773 311.549 111.069C311.05 111.36 310.433 111.505 309.701 111.505ZM309.97 110.261C310.402 110.261 310.773 110.186 311.083 110.036C311.394 109.88 311.644 109.684 311.833 109.446C312.022 109.208 312.146 108.961 312.204 108.704C312.287 108.471 312.333 108.209 312.342 107.918C312.357 107.627 312.364 107.394 312.364 107.219L312.859 107.401C312.379 107.474 311.942 107.54 311.549 107.598C311.156 107.656 310.8 107.714 310.48 107.772C310.164 107.826 309.883 107.891 309.635 107.969C309.427 108.042 309.24 108.129 309.075 108.231C308.915 108.333 308.786 108.456 308.689 108.602C308.597 108.748 308.551 108.925 308.551 109.133C308.551 109.337 308.602 109.526 308.704 109.701C308.806 109.871 308.961 110.006 309.17 110.108C309.378 110.21 309.645 110.261 309.97 110.261Z" fill="#737FFF"/>
<path d="M302.026 111.505C301.24 111.505 300.558 111.328 299.981 110.974C299.404 110.62 298.957 110.133 298.642 109.512C298.332 108.886 298.176 108.165 298.176 107.35C298.176 106.531 298.336 105.81 298.657 105.189C298.977 104.563 299.425 104.078 300.003 103.734C300.58 103.385 301.254 103.21 302.026 103.21C302.812 103.21 303.493 103.387 304.07 103.741C304.648 104.095 305.094 104.583 305.409 105.204C305.725 105.825 305.882 106.54 305.882 107.35C305.882 108.17 305.722 108.893 305.402 109.519C305.087 110.14 304.64 110.627 304.063 110.981C303.486 111.331 302.807 111.505 302.026 111.505ZM302.026 110.072C302.778 110.072 303.338 109.82 303.707 109.315C304.08 108.806 304.267 108.151 304.267 107.35C304.267 106.531 304.078 105.876 303.699 105.386C303.326 104.891 302.768 104.643 302.026 104.643C301.516 104.643 301.097 104.76 300.767 104.993C300.437 105.221 300.192 105.539 300.032 105.946C299.872 106.349 299.792 106.817 299.792 107.35C299.792 108.175 299.981 108.835 300.359 109.33C300.738 109.824 301.293 110.072 302.026 110.072Z" fill="#737FFF"/>
<path d="M294.907 111.287V100.59H296.428V111.287H294.907Z" fill="#737FFF"/>
<path d="M289.596 111.505C288.845 111.505 288.214 111.323 287.705 110.96C287.195 110.591 286.809 110.094 286.548 109.468C286.286 108.842 286.155 108.136 286.155 107.35C286.155 106.565 286.283 105.859 286.54 105.233C286.802 104.607 287.185 104.115 287.69 103.756C288.199 103.392 288.825 103.21 289.567 103.21C290.305 103.21 290.94 103.392 291.474 103.756C292.012 104.115 292.427 104.607 292.718 105.233C293.009 105.854 293.155 106.56 293.155 107.35C293.155 108.136 293.009 108.845 292.718 109.475C292.432 110.101 292.022 110.596 291.488 110.96C290.96 111.323 290.329 111.505 289.596 111.505ZM285.9 114.78V103.428H287.253V109.082H287.428V114.78H285.9ZM289.385 110.13C289.871 110.13 290.271 110.006 290.586 109.759C290.906 109.512 291.144 109.179 291.299 108.762C291.459 108.34 291.539 107.869 291.539 107.35C291.539 106.836 291.459 106.37 291.299 105.953C291.144 105.536 290.904 105.204 290.579 104.956C290.254 104.709 289.839 104.585 289.335 104.585C288.859 104.585 288.466 104.702 288.156 104.935C287.85 105.167 287.622 105.492 287.472 105.91C287.326 106.327 287.253 106.807 287.253 107.35C287.253 107.894 287.326 108.374 287.472 108.791C287.617 109.208 287.848 109.536 288.163 109.774C288.478 110.011 288.886 110.13 289.385 110.13Z" fill="#737FFF"/>
<path d="M279.695 111.505C278.875 111.505 278.15 111.338 277.519 111.003C276.893 110.664 276.403 110.191 276.049 109.584C275.695 108.973 275.518 108.255 275.518 107.43V100.816L277.06 100.809V107.35C277.06 107.797 277.136 108.19 277.286 108.529C277.436 108.869 277.638 109.153 277.89 109.381C278.142 109.609 278.424 109.781 278.734 109.897C279.049 110.014 279.37 110.072 279.695 110.072C280.025 110.072 280.345 110.014 280.655 109.897C280.971 109.776 281.254 109.601 281.507 109.373C281.759 109.145 281.958 108.861 282.103 108.522C282.254 108.182 282.329 107.792 282.329 107.35V100.809H283.871V107.43C283.871 108.25 283.694 108.966 283.34 109.577C282.986 110.188 282.494 110.664 281.863 111.003C281.237 111.338 280.514 111.505 279.695 111.505Z" fill="#737FFF"/>
<path d="M267.149 111.505C266.363 111.505 265.681 111.328 265.104 110.974C264.527 110.62 264.08 110.133 263.765 109.512C263.455 108.886 263.299 108.165 263.299 107.35C263.299 106.531 263.459 105.81 263.78 105.189C264.1 104.563 264.548 104.078 265.126 103.734C265.703 103.385 266.377 103.21 267.149 103.21C267.935 103.21 268.616 103.387 269.193 103.741C269.771 104.095 270.217 104.583 270.532 105.204C270.848 105.825 271.005 106.54 271.005 107.35C271.005 108.17 270.845 108.893 270.525 109.519C270.21 110.14 269.763 110.627 269.186 110.981C268.609 111.331 267.93 111.505 267.149 111.505ZM267.149 110.072C267.901 110.072 268.461 109.82 268.83 109.315C269.203 108.806 269.39 108.151 269.39 107.35C269.39 106.531 269.201 105.876 268.822 105.386C268.449 104.891 267.891 104.643 267.149 104.643C266.639 104.643 266.22 104.76 265.89 104.993C265.56 105.221 265.315 105.539 265.155 105.946C264.995 106.349 264.915 106.817 264.915 107.35C264.915 108.175 265.104 108.835 265.482 109.33C265.861 109.824 266.416 110.072 267.149 110.072Z" fill="#737FFF"/>
<path d="M262.434 111.287C261.939 111.384 261.454 111.425 260.979 111.411C260.503 111.396 260.079 111.304 259.705 111.134C259.332 110.965 259.051 110.698 258.861 110.334C258.692 110.009 258.599 109.679 258.585 109.344C258.575 109.005 258.57 108.622 258.57 108.195V101.245H260.098V108.122C260.098 108.437 260.101 108.711 260.106 108.944C260.115 109.177 260.166 109.373 260.258 109.534C260.433 109.834 260.71 110.007 261.088 110.05C261.471 110.089 261.92 110.072 262.434 109.999V111.287ZM257.064 104.651V103.428H262.434V104.651H257.064Z" fill="#737FFF"/>
<path d="M247.385 111.287L247.392 100.809H248.934V107.212L252.02 103.428H253.955L250.695 107.358L254.29 111.287H252.224L248.934 107.503V111.287H247.385Z" fill="#737FFF"/>
<path d="M242.482 111.505C241.677 111.505 240.993 111.326 240.43 110.967C239.867 110.608 239.436 110.116 239.135 109.49C238.839 108.864 238.688 108.153 238.684 107.358C238.688 106.548 238.844 105.832 239.149 105.211C239.455 104.585 239.892 104.095 240.459 103.741C241.027 103.387 241.708 103.21 242.504 103.21C243.363 103.21 244.095 103.423 244.701 103.85C245.313 104.277 245.715 104.862 245.909 105.604L244.396 106.041C244.245 105.599 243.998 105.257 243.654 105.015C243.314 104.767 242.923 104.643 242.482 104.643C241.982 104.643 241.572 104.762 241.252 105C240.932 105.233 240.694 105.553 240.539 105.961C240.384 106.368 240.304 106.834 240.299 107.358C240.304 108.168 240.488 108.823 240.852 109.322C241.221 109.822 241.764 110.072 242.482 110.072C242.972 110.072 243.367 109.96 243.668 109.737C243.974 109.509 244.207 109.184 244.367 108.762L245.909 109.126C245.652 109.892 245.228 110.482 244.636 110.894C244.044 111.302 243.326 111.505 242.482 111.505Z" fill="#737FFF"/>
<path d="M235.414 102.14V100.663H236.935V102.14H235.414ZM235.414 111.287V103.428H236.935V111.287H235.414Z" fill="#737FFF"/>
<path d="M231.562 111.287V100.59H233.083V111.287H231.562Z" fill="#737FFF"/>
<path d="M225.16 111.505C224.112 111.505 223.219 111.277 222.482 110.821C221.744 110.361 221.179 109.72 220.786 108.9C220.398 108.08 220.204 107.13 220.204 106.048C220.204 104.966 220.398 104.015 220.786 103.195C221.179 102.376 221.744 101.738 222.482 101.282C223.219 100.821 224.112 100.59 225.16 100.59C226.367 100.59 227.367 100.896 228.158 101.507C228.953 102.118 229.506 102.941 229.817 103.974L228.274 104.389C228.07 103.656 227.706 103.081 227.182 102.664C226.663 102.247 225.989 102.038 225.16 102.038C224.417 102.038 223.799 102.206 223.304 102.54C222.809 102.875 222.436 103.343 222.183 103.945C221.936 104.546 221.812 105.247 221.812 106.048C221.807 106.848 221.929 107.549 222.176 108.151C222.428 108.752 222.802 109.221 223.297 109.555C223.796 109.89 224.417 110.057 225.16 110.057C225.989 110.057 226.663 109.849 227.182 109.432C227.706 109.009 228.07 108.435 228.274 107.707L229.817 108.122C229.506 109.155 228.953 109.977 228.158 110.589C227.367 111.2 226.367 111.505 225.16 111.505Z" fill="#737FFF"/>
<path d="M212.444 111.287V103.428H213.601V105.328L213.411 105.08C213.504 104.838 213.622 104.614 213.768 104.411C213.918 104.207 214.086 104.04 214.27 103.909C214.474 103.744 214.704 103.618 214.961 103.53C215.218 103.443 215.48 103.392 215.747 103.377C216.014 103.358 216.264 103.375 216.497 103.428V104.644C216.225 104.571 215.927 104.551 215.602 104.585C215.277 104.619 214.976 104.738 214.699 104.942C214.447 105.121 214.251 105.34 214.11 105.597C213.974 105.854 213.88 106.133 213.826 106.434C213.773 106.73 213.746 107.033 213.746 107.343V111.287H212.444Z" fill="#23253C"/>
<path d="M207.05 111.505C206.269 111.505 205.595 111.328 205.027 110.974C204.465 110.62 204.03 110.13 203.725 109.504C203.419 108.879 203.266 108.161 203.266 107.35C203.266 106.526 203.422 105.803 203.732 105.182C204.043 104.561 204.482 104.078 205.049 103.734C205.617 103.385 206.284 103.21 207.05 103.21C207.836 103.21 208.513 103.387 209.08 103.741C209.648 104.09 210.082 104.578 210.383 105.204C210.689 105.825 210.841 106.54 210.841 107.35C210.841 108.17 210.689 108.893 210.383 109.519C210.077 110.14 209.641 110.627 209.073 110.981C208.506 111.331 207.831 111.505 207.05 111.505ZM207.05 110.276C207.865 110.276 208.472 110.004 208.869 109.461C209.267 108.917 209.466 108.214 209.466 107.35C209.466 106.463 209.265 105.757 208.862 105.233C208.46 104.704 207.856 104.44 207.05 104.44C206.502 104.44 206.051 104.563 205.697 104.811C205.343 105.058 205.078 105.4 204.904 105.837C204.729 106.273 204.642 106.778 204.642 107.35C204.642 108.233 204.845 108.942 205.253 109.475C205.66 110.009 206.26 110.276 207.05 110.276Z" fill="#23253C"/>
<path d="M195.672 111.505C194.935 111.505 194.314 111.323 193.81 110.96C193.305 110.591 192.922 110.094 192.66 109.468C192.403 108.837 192.274 108.131 192.274 107.35C192.274 106.56 192.403 105.851 192.66 105.226C192.922 104.6 193.305 104.107 193.81 103.748C194.319 103.389 194.942 103.21 195.68 103.21C196.407 103.21 197.033 103.392 197.557 103.756C198.086 104.115 198.491 104.607 198.772 105.233C199.054 105.859 199.194 106.565 199.194 107.35C199.194 108.136 199.054 108.842 198.772 109.468C198.491 110.094 198.086 110.591 197.557 110.96C197.033 111.323 196.405 111.505 195.672 111.505ZM192.056 114.78V103.428H193.213V109.213H193.358V114.78H192.056ZM195.512 110.319C196.031 110.319 196.461 110.188 196.8 109.926C197.14 109.664 197.395 109.31 197.564 108.864C197.734 108.413 197.819 107.908 197.819 107.35C197.819 106.797 197.734 106.298 197.564 105.851C197.399 105.405 197.142 105.051 196.793 104.789C196.449 104.527 196.01 104.396 195.476 104.396C194.967 104.396 194.545 104.522 194.21 104.774C193.875 105.022 193.625 105.369 193.46 105.815C193.295 106.256 193.213 106.768 193.213 107.35C193.213 107.923 193.293 108.435 193.453 108.886C193.618 109.332 193.87 109.684 194.21 109.941C194.549 110.193 194.984 110.319 195.512 110.319Z" fill="#23253C"/>
<path d="M186.67 111.505C185.889 111.505 185.215 111.328 184.647 110.974C184.084 110.62 183.65 110.13 183.344 109.504C183.039 108.879 182.886 108.161 182.886 107.35C182.886 106.526 183.041 105.803 183.352 105.182C183.662 104.561 184.101 104.078 184.669 103.734C185.236 103.385 185.903 103.21 186.67 103.21C187.456 103.21 188.132 103.387 188.7 103.741C189.268 104.09 189.702 104.578 190.003 105.204C190.308 105.825 190.461 106.54 190.461 107.35C190.461 108.17 190.308 108.893 190.003 109.519C189.697 110.14 189.26 110.627 188.693 110.981C188.125 111.331 187.451 111.505 186.67 111.505ZM186.67 110.276C187.485 110.276 188.091 110.004 188.489 109.461C188.887 108.917 189.086 108.214 189.086 107.35C189.086 106.463 188.884 105.757 188.482 105.233C188.079 104.704 187.475 104.44 186.67 104.44C186.122 104.44 185.671 104.563 185.316 104.811C184.962 105.058 184.698 105.4 184.523 105.837C184.349 106.273 184.261 106.778 184.261 107.35C184.261 108.233 184.465 108.942 184.873 109.475C185.28 110.009 185.879 110.276 186.67 110.276Z" fill="#23253C"/>
<path d="M178.036 111.287V103.428H179.193V105.328L179.003 105.08C179.096 104.838 179.214 104.614 179.36 104.411C179.51 104.207 179.678 104.04 179.862 103.909C180.066 103.744 180.296 103.618 180.553 103.53C180.811 103.443 181.072 103.392 181.339 103.377C181.606 103.358 181.856 103.375 182.089 103.428V104.644C181.817 104.571 181.519 104.551 181.194 104.585C180.869 104.619 180.568 104.738 180.291 104.942C180.039 105.121 179.843 105.34 179.702 105.597C179.566 105.854 179.472 106.133 179.418 106.434C179.365 106.73 179.338 107.033 179.338 107.343V111.287H178.036Z" fill="#23253C"/>
<path d="M172.38 111.505C171.648 111.505 171.02 111.323 170.496 110.96C169.972 110.591 169.567 110.094 169.28 109.468C168.999 108.842 168.858 108.136 168.858 107.35C168.858 106.564 168.999 105.859 169.28 105.233C169.567 104.607 169.972 104.115 170.496 103.756C171.02 103.392 171.645 103.21 172.373 103.21C173.115 103.21 173.739 103.389 174.243 103.748C174.748 104.107 175.129 104.6 175.386 105.226C175.648 105.851 175.779 106.56 175.779 107.35C175.779 108.131 175.648 108.837 175.386 109.468C175.129 110.094 174.748 110.591 174.243 110.96C173.739 111.323 173.118 111.505 172.38 111.505ZM172.54 110.319C173.069 110.319 173.503 110.193 173.843 109.941C174.183 109.684 174.432 109.332 174.592 108.886C174.757 108.435 174.84 107.923 174.84 107.35C174.84 106.768 174.757 106.256 174.592 105.815C174.432 105.369 174.185 105.022 173.85 104.774C173.515 104.522 173.091 104.396 172.577 104.396C172.043 104.396 171.602 104.527 171.252 104.789C170.908 105.051 170.651 105.405 170.481 105.851C170.316 106.298 170.234 106.797 170.234 107.35C170.234 107.908 170.319 108.413 170.488 108.864C170.658 109.31 170.913 109.664 171.252 109.926C171.597 110.188 172.026 110.319 172.54 110.319ZM174.84 111.287V105.502H174.694V100.809H175.997V111.287H174.84Z" fill="#23253C"/>
<path d="M160.726 111.505C159.994 111.505 159.366 111.323 158.842 110.96C158.318 110.591 157.913 110.094 157.626 109.468C157.345 108.842 157.204 108.136 157.204 107.35C157.204 106.564 157.345 105.859 157.626 105.233C157.913 104.607 158.318 104.115 158.842 103.756C159.366 103.392 159.991 103.21 160.719 103.21C161.461 103.21 162.085 103.389 162.589 103.748C163.094 104.107 163.474 104.6 163.732 105.226C163.994 105.851 164.124 106.56 164.124 107.35C164.124 108.131 163.994 108.837 163.732 109.468C163.474 110.094 163.094 110.591 162.589 110.96C162.085 111.323 161.464 111.505 160.726 111.505ZM160.886 110.319C161.415 110.319 161.849 110.193 162.189 109.941C162.528 109.684 162.778 109.332 162.938 108.886C163.103 108.435 163.186 107.923 163.186 107.35C163.186 106.768 163.103 106.256 162.938 105.815C162.778 105.369 162.531 105.022 162.196 104.774C161.861 104.522 161.437 104.396 160.923 104.396C160.389 104.396 159.948 104.527 159.598 104.789C159.254 105.051 158.997 105.405 158.827 105.851C158.662 106.298 158.58 106.797 158.58 107.35C158.58 107.908 158.665 108.413 158.834 108.864C159.004 109.31 159.259 109.664 159.598 109.926C159.943 110.188 160.372 110.319 160.886 110.319ZM163.186 111.287V105.502H163.04V100.809H164.343V111.287H163.186Z" fill="#23253C"/>
<path d="M154.51 111.287V107.351C154.51 106.977 154.476 106.618 154.408 106.274C154.345 105.929 154.231 105.621 154.066 105.349C153.906 105.073 153.688 104.855 153.412 104.695C153.14 104.534 152.795 104.454 152.378 104.454C152.053 104.454 151.757 104.51 151.49 104.622C151.228 104.728 151.003 104.893 150.814 105.117C150.625 105.34 150.477 105.621 150.37 105.961C150.268 106.295 150.217 106.691 150.217 107.147L149.366 106.885C149.366 106.123 149.501 105.471 149.773 104.927C150.05 104.379 150.435 103.96 150.93 103.668C151.43 103.373 152.017 103.225 152.691 103.225C153.2 103.225 153.635 103.305 153.994 103.465C154.353 103.625 154.651 103.838 154.889 104.105C155.126 104.367 155.313 104.663 155.449 104.993C155.585 105.318 155.679 105.65 155.733 105.99C155.791 106.324 155.82 106.642 155.82 106.943V111.287H154.51ZM148.907 111.287V103.428H150.071V105.531H150.217V111.287H148.907Z" fill="#23253C"/>
<path d="M142.962 111.505C142.375 111.505 141.883 111.399 141.485 111.185C141.092 110.967 140.794 110.681 140.59 110.327C140.391 109.972 140.292 109.584 140.292 109.162C140.292 108.75 140.369 108.393 140.524 108.093C140.684 107.787 140.908 107.535 141.194 107.336C141.48 107.132 141.822 106.972 142.22 106.856C142.593 106.754 143.011 106.666 143.471 106.594C143.937 106.516 144.408 106.446 144.883 106.383C145.359 106.32 145.802 106.259 146.215 106.201L145.749 106.47C145.764 105.771 145.623 105.255 145.327 104.92C145.036 104.585 144.531 104.418 143.813 104.418C143.338 104.418 142.921 104.527 142.562 104.745C142.208 104.959 141.958 105.308 141.812 105.793L140.583 105.422C140.772 104.733 141.138 104.192 141.681 103.799C142.225 103.406 142.94 103.21 143.828 103.21C144.541 103.21 145.152 103.339 145.662 103.596C146.176 103.848 146.545 104.231 146.768 104.745C146.879 104.988 146.95 105.252 146.979 105.539C147.008 105.82 147.022 106.116 147.022 106.426V111.287H145.873V109.402L146.142 109.577C145.846 110.213 145.431 110.693 144.898 111.018C144.369 111.343 143.724 111.505 142.962 111.505ZM143.159 110.421C143.624 110.421 144.027 110.339 144.366 110.174C144.711 110.004 144.987 109.783 145.196 109.512C145.405 109.235 145.54 108.934 145.604 108.609C145.676 108.367 145.715 108.097 145.72 107.802C145.73 107.501 145.734 107.27 145.734 107.11L146.186 107.307C145.764 107.365 145.349 107.421 144.941 107.474C144.534 107.527 144.148 107.586 143.784 107.649C143.42 107.707 143.093 107.777 142.802 107.86C142.589 107.928 142.387 108.015 142.198 108.122C142.014 108.228 141.863 108.367 141.747 108.537C141.635 108.701 141.579 108.908 141.579 109.155C141.579 109.368 141.633 109.572 141.74 109.766C141.851 109.96 142.021 110.118 142.249 110.239C142.482 110.361 142.785 110.421 143.159 110.421Z" fill="#23253C"/>
<path d="M132.268 114.998C131.856 114.998 131.453 114.935 131.06 114.809C130.667 114.683 130.306 114.491 129.976 114.234C129.651 113.982 129.379 113.662 129.161 113.274L130.347 112.648C130.541 113.031 130.815 113.31 131.169 113.485C131.528 113.659 131.897 113.747 132.275 113.747C132.775 113.747 133.19 113.654 133.52 113.47C133.85 113.291 134.092 113.021 134.247 112.662C134.407 112.303 134.485 111.857 134.48 111.323V109.177H134.633V103.428H135.783V111.338C135.783 111.551 135.776 111.758 135.761 111.957C135.751 112.155 135.727 112.352 135.688 112.546C135.586 113.104 135.385 113.562 135.084 113.921C134.783 114.285 134.395 114.554 133.92 114.729C133.445 114.908 132.894 114.998 132.268 114.998ZM132.174 111.505C131.441 111.505 130.813 111.323 130.289 110.96C129.765 110.591 129.36 110.094 129.074 109.468C128.792 108.842 128.652 108.136 128.652 107.35C128.652 106.565 128.792 105.859 129.074 105.233C129.36 104.607 129.765 104.115 130.289 103.756C130.813 103.392 131.439 103.21 132.166 103.21C132.908 103.21 133.532 103.389 134.036 103.748C134.541 104.107 134.922 104.6 135.179 105.226C135.441 105.851 135.572 106.56 135.572 107.35C135.572 108.131 135.441 108.837 135.179 109.468C134.922 110.094 134.541 110.591 134.036 110.96C133.532 111.323 132.911 111.505 132.174 111.505ZM132.334 110.319C132.862 110.319 133.297 110.193 133.636 109.941C133.976 109.684 134.226 109.332 134.386 108.886C134.551 108.435 134.633 107.923 134.633 107.35C134.633 106.768 134.551 106.256 134.386 105.815C134.226 105.369 133.978 105.022 133.643 104.774C133.309 104.522 132.884 104.396 132.37 104.396C131.836 104.396 131.395 104.527 131.046 104.789C130.701 105.051 130.444 105.405 130.274 105.851C130.109 106.298 130.027 106.797 130.027 107.35C130.027 107.908 130.112 108.413 130.282 108.864C130.451 109.31 130.706 109.664 131.046 109.926C131.39 110.188 131.819 110.319 132.334 110.319Z" fill="#23253C"/>
<path d="M123.136 111.505C122.549 111.505 122.057 111.399 121.659 111.185C121.266 110.967 120.967 110.681 120.764 110.327C120.565 109.972 120.465 109.584 120.465 109.162C120.465 108.75 120.543 108.393 120.698 108.093C120.858 107.787 121.081 107.535 121.368 107.336C121.654 107.132 121.996 106.972 122.394 106.856C122.767 106.754 123.184 106.666 123.645 106.594C124.111 106.516 124.582 106.446 125.057 106.383C125.532 106.32 125.976 106.259 126.389 106.201L125.923 106.47C125.937 105.771 125.797 105.255 125.501 104.92C125.21 104.585 124.705 104.418 123.987 104.418C123.512 104.418 123.095 104.527 122.736 104.745C122.382 104.959 122.132 105.308 121.986 105.793L120.756 105.422C120.946 104.733 121.312 104.192 121.855 103.799C122.399 103.406 123.114 103.21 124.002 103.21C124.715 103.21 125.326 103.339 125.836 103.596C126.35 103.848 126.718 104.231 126.942 104.745C127.053 104.988 127.124 105.252 127.153 105.539C127.182 105.82 127.196 106.116 127.196 106.426V111.287H126.047V109.402L126.316 109.577C126.02 110.213 125.605 110.693 125.071 111.018C124.543 111.343 123.898 111.505 123.136 111.505ZM123.332 110.421C123.798 110.421 124.201 110.339 124.54 110.174C124.885 110.004 125.161 109.783 125.37 109.512C125.578 109.235 125.714 108.934 125.777 108.609C125.85 108.367 125.889 108.097 125.894 107.802C125.903 107.501 125.908 107.27 125.908 107.11L126.359 107.307C125.937 107.365 125.523 107.421 125.115 107.474C124.708 107.527 124.322 107.586 123.958 107.649C123.594 107.707 123.267 107.777 122.976 107.86C122.762 107.928 122.561 108.015 122.372 108.122C122.187 108.228 122.037 108.367 121.921 108.537C121.809 108.701 121.753 108.908 121.753 109.155C121.753 109.368 121.807 109.572 121.913 109.766C122.025 109.96 122.195 110.118 122.423 110.239C122.656 110.361 122.959 110.421 123.332 110.421Z" fill="#23253C"/>
<path d="M115.729 111.287V103.428H116.886V105.328L116.697 105.08C116.789 104.838 116.908 104.614 117.053 104.411C117.204 104.207 117.371 104.04 117.555 103.909C117.759 103.744 117.989 103.618 118.247 103.53C118.504 103.443 118.766 103.392 119.032 103.377C119.299 103.358 119.549 103.375 119.782 103.428V104.644C119.51 104.571 119.212 104.551 118.887 104.585C118.562 104.619 118.261 104.738 117.985 104.942C117.732 105.121 117.536 105.34 117.395 105.597C117.259 105.854 117.165 106.133 117.111 106.434C117.058 106.73 117.031 107.033 117.031 107.343V111.287H115.729Z" fill="#23253C"/>
<path d="M105.823 111.287V100.809H109.054C109.16 100.809 109.347 100.811 109.614 100.816C109.881 100.821 110.135 100.84 110.378 100.874C111.188 100.981 111.865 101.277 112.408 101.762C112.956 102.242 113.369 102.853 113.645 103.596C113.922 104.338 114.06 105.155 114.06 106.048C114.06 106.94 113.922 107.758 113.645 108.5C113.369 109.242 112.956 109.856 112.408 110.341C111.865 110.821 111.188 111.115 110.378 111.222C110.135 111.251 109.878 111.27 109.607 111.28C109.34 111.285 109.155 111.287 109.054 111.287H105.823ZM107.154 110.05H109.054C109.238 110.05 109.444 110.045 109.672 110.035C109.9 110.021 110.099 109.999 110.269 109.97C110.841 109.863 111.305 109.623 111.659 109.25C112.013 108.876 112.272 108.41 112.437 107.852C112.602 107.295 112.685 106.693 112.685 106.048C112.685 105.388 112.6 104.779 112.43 104.221C112.265 103.663 112.006 103.2 111.651 102.832C111.297 102.463 110.836 102.228 110.269 102.126C110.099 102.092 109.898 102.07 109.665 102.06C109.432 102.05 109.228 102.046 109.054 102.046H107.154V110.05Z" fill="#23253C"/>
<path d="M201.564 130.287V122.428H204.626C205.095 122.428 205.495 122.524 205.827 122.717C206.161 122.91 206.416 123.165 206.591 123.481C206.769 123.794 206.858 124.132 206.858 124.496C206.858 124.922 206.749 125.295 206.531 125.615C206.312 125.935 206.018 126.155 205.646 126.275L205.636 126.008C206.141 126.142 206.534 126.39 206.814 126.75C207.095 127.11 207.235 127.54 207.235 128.038C207.235 128.497 207.14 128.893 206.951 129.228C206.765 129.563 206.496 129.823 206.143 130.008C205.794 130.194 205.379 130.287 204.899 130.287H201.564ZM202.547 129.359H204.713C205.004 129.359 205.264 129.306 205.494 129.201C205.723 129.091 205.903 128.939 206.034 128.742C206.169 128.546 206.236 128.309 206.236 128.033C206.236 127.767 206.176 127.529 206.056 127.318C205.939 127.107 205.774 126.939 205.559 126.816C205.348 126.688 205.103 126.625 204.822 126.625H202.547V129.359ZM202.547 125.708H204.615C204.848 125.708 205.057 125.659 205.243 125.56C205.432 125.458 205.581 125.317 205.69 125.135C205.803 124.953 205.859 124.74 205.859 124.496C205.859 124.158 205.745 123.881 205.515 123.667C205.286 123.452 204.986 123.345 204.615 123.345H202.547V125.708Z" fill="#66698A"/>
<path d="M192.333 130.287V122.428H193.217L196.186 128.688L199.139 122.428H200.034V130.281H199.112V124.562L196.443 130.287H195.924L193.256 124.562V130.287H192.333Z" fill="#66698A"/>
<path d="M188.326 130.45C187.923 130.45 187.546 130.367 187.197 130.199C186.851 130.032 186.555 129.803 186.307 129.512C186.063 129.217 185.889 128.879 185.783 128.497L186.716 128.245C186.782 128.504 186.898 128.728 187.066 128.917C187.233 129.102 187.428 129.248 187.65 129.353C187.875 129.455 188.11 129.506 188.354 129.506C188.674 129.506 188.961 129.43 189.216 129.277C189.474 129.12 189.678 128.915 189.827 128.66C189.976 128.402 190.051 128.12 190.051 127.814C190.051 127.498 189.973 127.212 189.816 126.957C189.664 126.699 189.458 126.495 189.2 126.346C188.941 126.197 188.659 126.122 188.354 126.122C188.008 126.122 187.712 126.195 187.464 126.341C187.22 126.483 187.028 126.657 186.886 126.865L186.023 126.537L186.263 122.428H190.482V123.35H186.733L187.164 122.946L186.962 126.237L186.749 125.959C186.967 125.726 187.228 125.546 187.53 125.418C187.835 125.291 188.146 125.227 188.463 125.227C188.95 125.227 189.387 125.342 189.773 125.571C190.158 125.797 190.464 126.106 190.69 126.499C190.915 126.888 191.028 127.327 191.028 127.814C191.028 128.298 190.904 128.74 190.657 129.141C190.409 129.537 190.08 129.855 189.669 130.096C189.261 130.332 188.814 130.45 188.326 130.45Z" fill="#66698A"/>
<path d="M179.772 130.45C179.186 130.45 178.68 130.317 178.254 130.052C177.832 129.786 177.507 129.419 177.277 128.949C177.048 128.48 176.934 127.941 176.934 127.334C176.934 126.715 177.05 126.173 177.283 125.708C177.516 125.242 177.845 124.88 178.271 124.621C178.696 124.359 179.197 124.229 179.772 124.229C180.361 124.229 180.868 124.361 181.294 124.627C181.72 124.889 182.045 125.255 182.271 125.724C182.5 126.19 182.615 126.726 182.615 127.334C182.615 127.949 182.5 128.491 182.271 128.96C182.042 129.426 181.714 129.792 181.289 130.057C180.863 130.319 180.357 130.45 179.772 130.45ZM179.772 129.528C180.383 129.528 180.838 129.324 181.136 128.917C181.434 128.509 181.583 127.981 181.583 127.334C181.583 126.668 181.432 126.139 181.13 125.746C180.828 125.349 180.375 125.151 179.772 125.151C179.36 125.151 179.022 125.244 178.756 125.429C178.491 125.615 178.293 125.871 178.162 126.199C178.031 126.526 177.965 126.905 177.965 127.334C177.965 127.996 178.118 128.527 178.424 128.927C178.729 129.328 179.178 129.528 179.772 129.528Z" fill="#66698A"/>
<path d="M176.31 130.287C175.96 130.356 175.615 130.383 175.273 130.368C174.934 130.357 174.632 130.29 174.367 130.166C174.101 130.039 173.899 129.843 173.761 129.577C173.644 129.344 173.581 129.11 173.57 128.873C173.563 128.633 173.559 128.362 173.559 128.06V122.755H174.53V128.016C174.53 128.256 174.532 128.462 174.536 128.633C174.543 128.804 174.581 128.951 174.65 129.075C174.781 129.308 174.989 129.444 175.273 129.484C175.56 129.524 175.906 129.513 176.31 129.452V130.287ZM172.364 125.195V124.392H176.31V125.195H172.364Z" fill="#66698A"/>
<path d="M166.996 130.45C166.443 130.45 165.977 130.314 165.598 130.041C165.22 129.764 164.933 129.391 164.736 128.922C164.543 128.449 164.447 127.92 164.447 127.334C164.447 126.741 164.543 126.21 164.736 125.74C164.933 125.271 165.22 124.902 165.598 124.632C165.98 124.363 166.448 124.229 167.001 124.229C167.547 124.229 168.016 124.365 168.409 124.638C168.806 124.907 169.109 125.276 169.321 125.746C169.532 126.215 169.637 126.744 169.637 127.334C169.637 127.923 169.532 128.453 169.321 128.922C169.109 129.391 168.806 129.764 168.409 130.041C168.016 130.314 167.545 130.45 166.996 130.45ZM164.283 132.906V124.392H165.151V128.731H165.26V132.906H164.283ZM166.876 129.561C167.265 129.561 167.587 129.462 167.842 129.266C168.096 129.069 168.287 128.804 168.415 128.469C168.542 128.131 168.606 127.752 168.606 127.334C168.606 126.919 168.542 126.544 168.415 126.21C168.291 125.875 168.098 125.609 167.836 125.413C167.578 125.216 167.248 125.118 166.848 125.118C166.466 125.118 166.15 125.213 165.899 125.402C165.648 125.587 165.46 125.848 165.337 126.182C165.213 126.513 165.151 126.897 165.151 127.334C165.151 127.763 165.211 128.147 165.331 128.485C165.455 128.82 165.644 129.084 165.899 129.277C166.153 129.466 166.479 129.561 166.876 129.561Z" fill="#66698A"/>
<path d="M159.928 130.439C159.55 130.439 159.224 130.379 158.951 130.259C158.682 130.139 158.458 129.979 158.28 129.779C158.102 129.579 157.962 129.357 157.86 129.113C157.758 128.869 157.685 128.62 157.642 128.365C157.602 128.111 157.582 127.872 157.582 127.65V124.392H158.564V127.345C158.564 127.621 158.589 127.889 158.64 128.147C158.691 128.405 158.777 128.638 158.897 128.846C159.021 129.053 159.184 129.217 159.388 129.337C159.595 129.457 159.854 129.517 160.163 129.517C160.407 129.517 160.629 129.475 160.829 129.391C161.029 129.308 161.2 129.184 161.342 129.02C161.484 128.853 161.593 128.642 161.669 128.387C161.746 128.133 161.784 127.836 161.784 127.498L162.422 127.694C162.422 128.262 162.319 128.751 162.111 129.162C161.908 129.573 161.618 129.89 161.244 130.112C160.872 130.33 160.434 130.439 159.928 130.439ZM161.893 130.286V128.709H161.784V124.392H162.761V130.286H161.893Z" fill="#66698A"/>
<path d="M151.346 133.07C151.036 133.07 150.734 133.022 150.44 132.928C150.145 132.833 149.874 132.69 149.627 132.497C149.383 132.307 149.179 132.067 149.015 131.776L149.905 131.307C150.05 131.594 150.256 131.804 150.522 131.935C150.791 132.066 151.067 132.131 151.351 132.131C151.726 132.131 152.037 132.062 152.284 131.924C152.532 131.789 152.714 131.587 152.83 131.318C152.95 131.049 153.008 130.714 153.005 130.314V128.704H153.119V124.392H153.982V130.325C153.982 130.485 153.976 130.639 153.965 130.788C153.958 130.938 153.94 131.085 153.911 131.231C153.834 131.649 153.683 131.993 153.458 132.262C153.232 132.535 152.941 132.737 152.585 132.868C152.228 133.002 151.815 133.07 151.346 133.07ZM151.275 130.45C150.725 130.45 150.254 130.314 149.861 130.041C149.468 129.764 149.164 129.391 148.95 128.922C148.739 128.453 148.633 127.923 148.633 127.334C148.633 126.744 148.739 126.215 148.95 125.746C149.164 125.276 149.468 124.907 149.861 124.638C150.254 124.365 150.724 124.229 151.269 124.229C151.826 124.229 152.293 124.363 152.672 124.632C153.05 124.902 153.336 125.271 153.529 125.74C153.725 126.21 153.823 126.741 153.823 127.334C153.823 127.92 153.725 128.449 153.529 128.922C153.336 129.391 153.05 129.764 152.672 130.041C152.293 130.314 151.828 130.45 151.275 130.45ZM151.395 129.561C151.791 129.561 152.117 129.466 152.372 129.277C152.626 129.084 152.814 128.82 152.934 128.485C153.058 128.147 153.119 127.763 153.119 127.334C153.119 126.897 153.058 126.513 152.934 126.182C152.814 125.848 152.628 125.587 152.377 125.402C152.126 125.213 151.808 125.118 151.422 125.118C151.022 125.118 150.691 125.216 150.429 125.413C150.171 125.609 149.978 125.875 149.85 126.21C149.727 126.544 149.665 126.919 149.665 127.334C149.665 127.752 149.728 128.131 149.856 128.469C149.983 128.804 150.174 129.069 150.429 129.266C150.687 129.462 151.009 129.561 151.395 129.561Z" fill="#66698A"/>
<path d="M145.123 130.45C144.57 130.45 144.104 130.314 143.726 130.041C143.347 129.764 143.06 129.391 142.863 128.922C142.671 128.449 142.574 127.92 142.574 127.334C142.574 126.741 142.671 126.21 142.863 125.74C143.06 125.271 143.347 124.902 143.726 124.632C144.108 124.363 144.575 124.229 145.128 124.229C145.674 124.229 146.143 124.365 146.536 124.638C146.933 124.907 147.237 125.276 147.448 125.746C147.659 126.215 147.764 126.744 147.764 127.334C147.764 127.923 147.659 128.453 147.448 128.922C147.237 129.391 146.933 129.764 146.536 130.041C146.143 130.314 145.672 130.45 145.123 130.45ZM142.41 132.906V124.392H143.278V128.731H143.387V132.906H142.41ZM145.003 129.561C145.392 129.561 145.714 129.462 145.969 129.266C146.223 129.069 146.414 128.804 146.542 128.469C146.669 128.131 146.733 127.752 146.733 127.334C146.733 126.919 146.669 126.544 146.542 126.21C146.418 125.875 146.225 125.609 145.963 125.413C145.705 125.216 145.376 125.118 144.975 125.118C144.593 125.118 144.277 125.213 144.026 125.402C143.775 125.587 143.587 125.848 143.464 126.182C143.34 126.513 143.278 126.897 143.278 127.334C143.278 127.763 143.338 128.147 143.458 128.485C143.582 128.82 143.771 129.084 144.026 129.277C144.281 129.466 144.606 129.561 145.003 129.561Z" fill="#66698A"/>
<path d="M138.644 130.445C138.095 130.445 137.629 130.296 137.247 129.997C136.865 129.699 136.603 129.299 136.461 128.797L137.427 128.567C137.485 128.833 137.625 129.059 137.847 129.244C138.073 129.43 138.331 129.523 138.622 129.523C138.811 129.523 139.004 129.477 139.201 129.386C139.397 129.291 139.548 129.139 139.654 128.928C139.726 128.782 139.768 128.622 139.779 128.447C139.79 128.269 139.795 128.06 139.795 127.82V122.428H140.778V127.82C140.778 128.045 140.776 128.247 140.772 128.426C140.772 128.604 140.754 128.775 140.718 128.939C140.685 129.099 140.62 129.262 140.521 129.43C140.325 129.775 140.061 130.032 139.73 130.199C139.403 130.363 139.041 130.445 138.644 130.445Z" fill="#66698A"/>
<path d="M130.42 130.45C129.984 130.45 129.576 130.387 129.198 130.259C128.819 130.132 128.503 129.932 128.248 129.659C128.052 129.441 127.904 129.201 127.806 128.939C127.711 128.673 127.659 128.393 127.648 128.098C127.648 127.811 127.69 127.531 127.773 127.258C127.857 126.981 127.99 126.736 128.172 126.521C128.266 126.404 128.372 126.306 128.488 126.226C128.608 126.142 128.728 126.072 128.848 126.013C128.597 125.744 128.404 125.491 128.27 125.255C128.139 125.018 128.073 124.733 128.073 124.398C128.073 123.972 128.183 123.588 128.401 123.246C128.623 122.901 128.925 122.648 129.307 122.488C129.492 122.408 129.682 122.353 129.874 122.324C130.071 122.291 130.262 122.275 130.447 122.275C130.76 122.275 131.064 122.319 131.359 122.406C131.654 122.493 131.905 122.635 132.112 122.832C132.25 122.948 132.368 123.083 132.467 123.235C132.565 123.385 132.641 123.541 132.696 123.705L131.746 123.95C131.677 123.765 131.563 123.608 131.402 123.481C131.275 123.372 131.126 123.297 130.955 123.257C130.788 123.217 130.618 123.197 130.447 123.197C130.164 123.197 129.907 123.252 129.678 123.361C129.474 123.459 129.321 123.597 129.219 123.776C129.118 123.95 129.067 124.158 129.067 124.398C129.067 124.605 129.101 124.776 129.17 124.911C129.243 125.042 129.343 125.182 129.471 125.331C129.547 125.411 129.632 125.497 129.727 125.588C129.825 125.675 129.925 125.766 130.027 125.861L132.341 128.011C132.352 127.92 132.359 127.827 132.363 127.732C132.367 127.638 132.368 127.547 132.368 127.46L132.363 126.374H133.253V127.651C133.253 127.909 133.243 128.129 133.225 128.311C133.211 128.493 133.185 128.644 133.149 128.764L134.148 129.686L133.515 130.363L132.685 129.577C132.543 129.737 132.374 129.877 132.177 129.997C131.981 130.117 131.785 130.208 131.588 130.27C131.402 130.339 131.211 130.387 131.015 130.412C130.819 130.438 130.62 130.45 130.42 130.45ZM130.442 129.517C130.62 129.517 130.782 129.506 130.928 129.484C131.073 129.462 131.211 129.421 131.342 129.359C131.517 129.275 131.652 129.195 131.746 129.119C131.841 129.042 131.919 128.971 131.981 128.906L129.585 126.712C129.454 126.756 129.33 126.814 129.214 126.887C129.101 126.959 129.003 127.045 128.919 127.143C128.825 127.259 128.754 127.396 128.706 127.552C128.663 127.709 128.641 127.874 128.641 128.049C128.645 128.235 128.676 128.406 128.734 128.562C128.792 128.718 128.874 128.859 128.979 128.982C129.139 129.168 129.356 129.304 129.629 129.392C129.902 129.475 130.173 129.517 130.442 129.517Z" fill="#66698A"/>
<path d="M121.521 133.07C121.212 133.07 120.91 133.022 120.615 132.928C120.32 132.833 120.049 132.69 119.802 132.497C119.558 132.307 119.354 132.067 119.191 131.776L120.08 131.307C120.226 131.594 120.431 131.804 120.697 131.935C120.966 132.066 121.243 132.131 121.526 132.131C121.901 132.131 122.212 132.062 122.46 131.924C122.707 131.789 122.889 131.587 123.005 131.318C123.126 131.049 123.184 130.714 123.18 130.314V128.704H123.295V124.392H124.157V130.325C124.157 130.485 124.152 130.639 124.141 130.788C124.133 130.938 124.115 131.085 124.086 131.231C124.01 131.649 123.859 131.993 123.633 132.262C123.407 132.535 123.116 132.737 122.76 132.868C122.403 133.002 121.99 133.07 121.521 133.07ZM121.45 130.45C120.901 130.45 120.429 130.314 120.037 130.041C119.644 129.764 119.34 129.391 119.125 128.922C118.914 128.453 118.809 127.923 118.809 127.334C118.809 126.744 118.914 126.215 119.125 125.746C119.34 125.276 119.644 124.907 120.037 124.638C120.429 124.365 120.899 124.229 121.445 124.229C122.001 124.229 122.469 124.363 122.847 124.632C123.226 124.902 123.511 125.271 123.704 125.74C123.9 126.21 123.999 126.741 123.999 127.334C123.999 127.92 123.9 128.449 123.704 128.922C123.511 129.391 123.226 129.764 122.847 130.041C122.469 130.314 122.003 130.45 121.45 130.45ZM121.57 129.561C121.967 129.561 122.292 129.466 122.547 129.277C122.802 129.084 122.989 128.82 123.109 128.485C123.233 128.147 123.295 127.763 123.295 127.334C123.295 126.897 123.233 126.513 123.109 126.182C122.989 125.848 122.804 125.587 122.552 125.402C122.301 125.213 121.983 125.118 121.597 125.118C121.197 125.118 120.866 125.216 120.604 125.413C120.346 125.609 120.153 125.875 120.026 126.21C119.902 126.544 119.84 126.919 119.84 127.334C119.84 127.752 119.904 128.131 120.031 128.469C120.158 128.804 120.349 129.069 120.604 129.266C120.862 129.462 121.184 129.561 121.57 129.561Z" fill="#66698A"/>
<path d="M116.735 130.286V127.334C116.735 127.054 116.71 126.785 116.659 126.526C116.611 126.268 116.526 126.037 116.402 125.833C116.282 125.626 116.118 125.462 115.911 125.342C115.707 125.222 115.449 125.162 115.136 125.162C114.892 125.162 114.67 125.204 114.47 125.287C114.274 125.367 114.104 125.491 113.963 125.658C113.821 125.826 113.71 126.037 113.63 126.292C113.553 126.543 113.515 126.839 113.515 127.181L112.877 126.985C112.877 126.413 112.978 125.924 113.182 125.517C113.39 125.105 113.679 124.791 114.05 124.572C114.425 124.35 114.865 124.24 115.371 124.24C115.753 124.24 116.078 124.3 116.348 124.42C116.617 124.54 116.841 124.7 117.019 124.9C117.197 125.096 117.337 125.318 117.439 125.566C117.541 125.809 117.612 126.059 117.652 126.313C117.696 126.564 117.717 126.803 117.717 127.028V130.286H116.735ZM112.533 130.286V124.392H113.406V125.97H113.515V130.286H112.533Z" fill="#66698A"/>
<path d="M105.823 130.287V122.428H108.928C109.004 122.428 109.095 122.431 109.201 122.439C109.306 122.442 109.408 122.453 109.507 122.471C109.932 122.537 110.289 122.682 110.576 122.908C110.867 123.134 111.086 123.419 111.231 123.765C111.377 124.107 111.449 124.487 111.449 124.905C111.449 125.32 111.375 125.7 111.226 126.046C111.08 126.388 110.862 126.674 110.571 126.903C110.283 127.128 109.929 127.274 109.507 127.34C109.408 127.354 109.306 127.365 109.201 127.372C109.095 127.38 109.004 127.383 108.928 127.383H106.794V130.287H105.823ZM106.794 126.461H108.895C108.964 126.461 109.043 126.457 109.13 126.45C109.221 126.443 109.306 126.43 109.387 126.412C109.638 126.354 109.841 126.248 109.998 126.095C110.158 125.939 110.274 125.757 110.347 125.549C110.42 125.338 110.456 125.124 110.456 124.905C110.456 124.687 110.42 124.474 110.347 124.267C110.274 124.056 110.158 123.872 109.998 123.716C109.841 123.559 109.638 123.454 109.387 123.399C109.306 123.377 109.221 123.365 109.13 123.361C109.043 123.354 108.964 123.35 108.895 123.35H106.794V126.461Z" fill="#66698A"/>
<path d="M228.016 61.2455C227.361 61.2455 226.813 61.1254 226.371 60.8853C225.929 60.6397 225.593 60.3177 225.364 59.9193C225.14 59.5154 225.028 59.0734 225.028 58.5931C225.028 58.1456 225.107 57.7526 225.266 57.4143C225.424 57.0759 225.659 56.7894 225.97 56.5547C226.281 56.3146 226.663 56.1208 227.116 55.9735C227.509 55.8589 227.954 55.7579 228.45 55.6706C228.947 55.5833 229.468 55.5014 230.014 55.425C230.565 55.3486 231.111 55.2722 231.651 55.1958L231.029 55.5396C231.04 54.8465 230.892 54.3335 230.587 54.0006C230.287 53.6622 229.768 53.493 229.031 53.493C228.568 53.493 228.142 53.6022 227.754 53.8205C227.367 54.0333 227.097 54.3881 226.944 54.8847L225.348 54.3935C225.566 53.6349 225.981 53.0319 226.592 52.5844C227.209 52.1368 228.027 51.9131 229.048 51.9131C229.839 51.9131 230.527 52.0495 231.111 52.3224C231.7 52.5898 232.131 53.0155 232.404 53.5995C232.546 53.8887 232.633 54.1943 232.666 54.5163C232.699 54.8383 232.715 55.1849 232.715 55.556V60.9999H231.201V58.9779L231.495 59.2398C231.13 59.9166 230.663 60.4214 230.096 60.7543C229.534 61.0817 228.84 61.2455 228.016 61.2455ZM228.319 59.8456C228.805 59.8456 229.222 59.761 229.572 59.5918C229.921 59.4172 230.202 59.1962 230.415 58.9287C230.628 58.6613 230.767 58.383 230.832 58.0937C230.925 57.8318 230.977 57.5371 230.988 57.2096C231.004 56.8822 231.013 56.6202 231.013 56.4237L231.569 56.6284C231.029 56.7103 230.538 56.7839 230.096 56.8494C229.654 56.9149 229.252 56.9804 228.892 57.0459C228.538 57.1059 228.221 57.1796 227.943 57.2669C227.708 57.3488 227.498 57.447 227.312 57.5616C227.132 57.6762 226.988 57.8154 226.878 57.9791C226.775 58.1429 226.723 58.3421 226.723 58.5767C226.723 58.806 226.78 59.0188 226.895 59.2153C227.009 59.4063 227.184 59.5591 227.419 59.6737C227.653 59.7883 227.954 59.8456 228.319 59.8456Z" fill="#23253C"/>
<path d="M223.655 61C223.099 61.1091 222.553 61.1555 222.018 61.1391C221.483 61.1228 221.006 61.0191 220.585 60.8281C220.165 60.6371 219.849 60.3369 219.636 59.9276C219.445 59.5619 219.341 59.1908 219.325 58.8142C219.314 58.4322 219.308 58.0011 219.308 57.5208V49.7029H221.027V57.4389C221.027 57.7937 221.03 58.102 221.036 58.364C221.047 58.626 221.104 58.847 221.208 59.0271C221.404 59.3654 221.715 59.5592 222.141 59.6083C222.572 59.652 223.077 59.6329 223.655 59.551V61ZM217.614 53.5341V52.1588H223.655V53.5341H217.614Z" fill="#23253C"/>
<path d="M211.771 61.2455C211.117 61.2455 210.568 61.1254 210.126 60.8853C209.684 60.6397 209.348 60.3177 209.119 59.9193C208.895 59.5154 208.783 59.0734 208.783 58.5931C208.783 58.1456 208.863 57.7526 209.021 57.4143C209.179 57.0759 209.414 56.7894 209.725 56.5547C210.036 56.3146 210.418 56.1208 210.871 55.9735C211.264 55.8589 211.709 55.7579 212.205 55.6706C212.702 55.5833 213.223 55.5014 213.769 55.425C214.32 55.3486 214.866 55.2722 215.406 55.1958L214.784 55.5396C214.795 54.8465 214.648 54.3335 214.342 54.0006C214.042 53.6622 213.523 53.493 212.787 53.493C212.323 53.493 211.897 53.6022 211.509 53.8205C211.122 54.0333 210.852 54.3881 210.699 54.8847L209.103 54.3935C209.321 53.6349 209.736 53.0319 210.347 52.5844C210.964 52.1368 211.782 51.9131 212.803 51.9131C213.594 51.9131 214.282 52.0495 214.866 52.3224C215.455 52.5898 215.886 53.0155 216.159 53.5995C216.301 53.8887 216.389 54.1943 216.421 54.5163C216.454 54.8383 216.47 55.1849 216.47 55.556V60.9999H214.956V58.9779L215.251 59.2398C214.885 59.9166 214.418 60.4214 213.851 60.7543C213.289 61.0817 212.596 61.2455 211.771 61.2455ZM212.074 59.8456C212.56 59.8456 212.978 59.761 213.327 59.5918C213.676 59.4172 213.957 59.1962 214.17 58.9287C214.383 58.6613 214.522 58.383 214.588 58.0937C214.68 57.8318 214.732 57.5371 214.743 57.2096C214.759 56.8822 214.768 56.6202 214.768 56.4237L215.324 56.6284C214.784 56.7103 214.293 56.7839 213.851 56.8494C213.409 56.9149 213.008 56.9804 212.647 57.0459C212.293 57.1059 211.976 57.1796 211.698 57.2669C211.463 57.3488 211.253 57.447 211.067 57.5616C210.887 57.6762 210.743 57.8154 210.634 57.9791C210.53 58.1429 210.478 58.3421 210.478 58.5767C210.478 58.806 210.535 59.0188 210.65 59.2153C210.765 59.4063 210.939 59.5591 211.174 59.6737C211.409 59.7883 211.709 59.8456 212.074 59.8456Z" fill="#23253C"/>
<path d="M197.97 60.9999V49.2117H201.662C201.772 49.2117 201.974 49.2144 202.268 49.2199C202.568 49.2253 202.855 49.2471 203.128 49.2853C204.05 49.4 204.825 49.7301 205.453 50.2759C206.086 50.8216 206.563 51.5147 206.885 52.3552C207.207 53.1902 207.368 54.1071 207.368 55.1058C207.368 56.11 207.207 57.0323 206.885 57.8728C206.563 58.7078 206.086 59.3982 205.453 59.9439C204.825 60.4842 204.05 60.8117 203.128 60.9263C202.855 60.9645 202.568 60.9863 202.268 60.9918C201.974 60.9972 201.772 60.9999 201.662 60.9999H197.97ZM199.722 59.3709H201.662C201.848 59.3709 202.069 59.3654 202.326 59.3545C202.582 59.3436 202.809 59.3218 203.005 59.289C203.605 59.1744 204.091 58.9152 204.462 58.5113C204.839 58.102 205.114 57.5999 205.289 57.005C205.464 56.4102 205.551 55.7771 205.551 55.1058C205.551 54.4127 205.461 53.7714 205.281 53.182C205.101 52.5872 204.822 52.0905 204.446 51.6921C204.075 51.2883 203.594 51.0318 203.005 50.9226C202.809 50.8844 202.579 50.8626 202.317 50.8571C202.061 50.8462 201.843 50.8407 201.662 50.8407H199.722V59.3709Z" fill="#23253C"/>
<path d="M188.244 61.2455C187.419 61.2455 186.707 61.0409 186.107 60.6316C185.512 60.2222 185.051 59.6656 184.723 58.9616C184.401 58.2521 184.24 57.4553 184.24 56.5712C184.24 55.6816 184.404 54.8875 184.732 54.1889C185.059 53.4849 185.523 52.931 186.123 52.5271C186.729 52.1178 187.447 51.9131 188.276 51.9131C189.111 51.9131 189.813 52.1178 190.38 52.5271C190.953 52.931 191.384 53.4849 191.674 54.1889C191.968 54.893 192.116 55.687 192.116 56.5712C192.116 57.4553 191.968 58.2493 191.674 58.9534C191.379 59.6574 190.945 60.2168 190.372 60.6316C189.799 61.0409 189.089 61.2455 188.244 61.2455ZM188.481 59.6983C189.043 59.6983 189.502 59.5646 189.856 59.2972C190.211 59.0298 190.47 58.6614 190.634 58.192C190.798 57.7227 190.88 57.1824 190.88 56.5712C190.88 55.9599 190.795 55.4196 190.626 54.9503C190.462 54.4809 190.206 54.1153 189.856 53.8533C189.512 53.5913 189.073 53.4604 188.538 53.4604C187.971 53.4604 187.504 53.5995 187.138 53.8779C186.773 54.1562 186.5 54.53 186.32 54.9994C186.145 55.4687 186.058 55.9927 186.058 56.5712C186.058 57.1551 186.145 57.6845 186.32 58.1593C186.5 58.6286 186.767 59.0025 187.122 59.2808C187.482 59.5592 187.935 59.6983 188.481 59.6983ZM190.88 60.9999V54.6392H190.683V49.2117H192.402V60.9999H190.88Z" fill="#23253C"/>
<path d="M177.907 61.2455C177.252 61.2455 176.704 61.1254 176.262 60.8853C175.819 60.6397 175.484 60.3177 175.255 59.9193C175.031 59.5154 174.919 59.0734 174.919 58.5931C174.919 58.1456 174.998 57.7526 175.156 57.4143C175.315 57.0759 175.549 56.7894 175.86 56.5547C176.171 56.3146 176.553 56.1208 177.006 55.9735C177.399 55.8589 177.844 55.7579 178.341 55.6706C178.837 55.5833 179.359 55.5014 179.904 55.425C180.456 55.3486 181.001 55.2722 181.542 55.1958L180.92 55.5396C180.93 54.8465 180.783 54.3335 180.477 54.0006C180.177 53.6622 179.659 53.493 178.922 53.493C178.458 53.493 178.032 53.6022 177.645 53.8205C177.258 54.0333 176.987 54.3881 176.835 54.8847L175.238 54.3935C175.457 53.6349 175.871 53.0319 176.483 52.5844C177.099 52.1368 177.918 51.9131 178.938 51.9131C179.73 51.9131 180.417 52.0495 181.001 52.3224C181.591 52.5898 182.022 53.0155 182.295 53.5995C182.437 53.8887 182.524 54.1943 182.557 54.5163C182.59 54.8383 182.606 55.1849 182.606 55.556V60.9999H181.091V58.9779L181.386 59.2398C181.02 59.9166 180.554 60.4214 179.986 60.7543C179.424 61.0817 178.731 61.2455 177.907 61.2455ZM178.21 59.8456C178.696 59.8456 179.113 59.761 179.462 59.5918C179.812 59.4172 180.093 59.1962 180.306 58.9287C180.518 58.6613 180.658 58.383 180.723 58.0937C180.816 57.8318 180.868 57.5371 180.879 57.2096C180.895 56.8822 180.903 56.6202 180.903 56.4237L181.46 56.6284C180.92 56.7103 180.428 56.7839 179.986 56.8494C179.544 56.9149 179.143 56.9804 178.783 57.0459C178.428 57.1059 178.112 57.1796 177.833 57.2669C177.599 57.3488 177.388 57.447 177.203 57.5616C177.023 57.6762 176.878 57.8154 176.769 57.9791C176.665 58.1429 176.614 58.3421 176.614 58.5767C176.614 58.806 176.671 59.0188 176.785 59.2153C176.9 59.4063 177.075 59.5591 177.309 59.6737C177.544 59.7883 177.844 59.8456 178.21 59.8456Z" fill="#23253C"/>
<path d="M169.272 61.2455C168.388 61.2455 167.622 61.0463 166.972 60.6479C166.323 60.2495 165.821 59.701 165.466 59.0024C165.117 58.2984 164.942 57.488 164.942 56.5711C164.942 55.6488 165.122 54.8383 165.482 54.1398C165.842 53.4357 166.347 52.89 166.997 52.5025C167.646 52.1096 168.405 51.9131 169.272 51.9131C170.157 51.9131 170.923 52.1123 171.573 52.5107C172.222 52.9091 172.724 53.4576 173.079 54.1561C173.434 54.8547 173.611 55.6597 173.611 56.5711C173.611 57.4934 173.431 58.3066 173.071 59.0106C172.716 59.7092 172.214 60.2577 171.565 60.6561C170.915 61.049 170.151 61.2455 169.272 61.2455ZM169.272 59.6328C170.118 59.6328 170.749 59.349 171.163 58.7814C171.584 58.2084 171.794 57.4716 171.794 56.5711C171.794 55.6488 171.581 54.912 171.155 54.3608C170.735 53.8041 170.107 53.5258 169.272 53.5258C168.699 53.5258 168.227 53.6568 167.856 53.9187C167.485 54.1752 167.21 54.5327 167.029 54.9911C166.849 55.4441 166.759 55.9708 166.759 56.5711C166.759 57.4989 166.972 58.2411 167.398 58.7978C167.823 59.3544 168.448 59.6328 169.272 59.6328Z" fill="#23253C"/>
<path d="M161.264 60.9999V48.9661H162.975V60.9999H161.264Z" fill="#23253C"/>
<path d="M155.29 61.2455C154.444 61.2455 153.734 61.0408 153.161 60.6315C152.588 60.2167 152.154 59.6573 151.859 58.9533C151.565 58.2493 151.417 57.4552 151.417 56.5711C151.417 55.687 151.562 54.8929 151.851 54.1889C152.146 53.4849 152.577 52.9309 153.145 52.5271C153.718 52.1177 154.422 51.9131 155.257 51.9131C156.086 51.9131 156.801 52.1177 157.402 52.5271C158.007 52.9309 158.474 53.4849 158.801 54.1889C159.129 54.8874 159.293 55.6815 159.293 56.5711C159.293 57.4552 159.129 58.252 158.801 58.9615C158.479 59.6655 158.018 60.2222 157.418 60.6315C156.823 61.0408 156.114 61.2455 155.29 61.2455ZM151.131 64.9293V52.1587H152.654V58.5194H152.85V64.9293H151.131ZM155.052 59.6983C155.598 59.6983 156.048 59.5591 156.403 59.2808C156.763 59.0024 157.03 58.6286 157.205 58.1592C157.385 57.6844 157.475 57.155 157.475 56.5711C157.475 55.9926 157.385 55.4687 157.205 54.9993C157.03 54.53 156.76 54.1561 156.395 53.8778C156.029 53.5995 155.562 53.4603 154.995 53.4603C154.46 53.4603 154.018 53.5913 153.669 53.8532C153.325 54.1152 153.068 54.4809 152.899 54.9502C152.735 55.4196 152.654 55.9598 152.654 56.5711C152.654 57.1823 152.735 57.7226 152.899 58.192C153.063 58.6613 153.322 59.0297 153.677 59.2971C154.032 59.5645 154.49 59.6983 155.052 59.6983Z" fill="#23253C"/>
<path d="M144.15 61.2455C143.228 61.2455 142.412 61.0572 141.702 60.6807C140.998 60.2987 140.447 59.7665 140.049 59.0843C139.65 58.3967 139.451 57.589 139.451 56.6612V49.2199L141.187 49.2117V56.5712C141.187 57.0732 141.271 57.5153 141.44 57.8973C141.61 58.2794 141.836 58.5986 142.12 58.8551C142.404 59.1116 142.72 59.3054 143.07 59.4364C143.424 59.5673 143.784 59.6328 144.15 59.6328C144.521 59.6328 144.881 59.5673 145.231 59.4364C145.585 59.2999 145.905 59.1035 146.188 58.8469C146.472 58.5904 146.696 58.2712 146.86 57.8891C147.029 57.5071 147.114 57.0678 147.114 56.5712V49.2117H148.849V56.6612C148.849 57.5835 148.65 58.3885 148.251 59.0762C147.853 59.7638 147.299 60.2987 146.59 60.6807C145.886 61.0572 145.072 61.2455 144.15 61.2455Z" fill="#23253C"/>
</svg>
