<svg width="64" height="64" viewBox="0 0 64 64" fill="none" xmlns="http://www.w3.org/2000/svg">
<path d="M39.0469 13.5469C39.0469 27.2531 41.3578 28.6078 44.625 31.875C40.4496 32.8901 36.1718 33.4248 31.875 33.4688V35.0625C31.875 36.6563 31.875 39.8438 39.8438 41.4375C47.8125 43.0313 47.8125 49.4063 47.8125 49.4063H3.1875C3.1875 49.4063 3.1875 43.0313 11.3156 41.4375C19.4437 39.8438 19.125 36.6563 19.125 35.0625V33.4688C14.8283 33.4234 10.5507 32.8887 6.375 31.875C9.64219 28.6078 12.75 27.2531 12.75 13.5469C12.75 13.5469 12.75 2.39064 22.3125 2.39064C22.3125 2.39064 39.0469 -2.78905 39.0469 13.5469Z" fill="#A1A9FF"/>
<path opacity="0.15" d="M19.125 33.4687V35.0625C19.125 36.2578 19.2844 38.1703 16.2562 39.8437C24.1453 38.25 23.9062 35.0625 23.9062 33.5484C22.2328 33.5484 16.575 31.7156 11.1562 30.3609C14.4234 27.0937 17.5312 25.7391 17.5312 12.0328C17.5312 12.0328 17.5312 5.57812 21.7547 2.47031C12.75 2.78906 12.75 13.5469 12.75 13.5469C12.75 27.2531 9.64219 28.6078 6.375 31.875C10.5507 32.8887 14.8283 33.4234 19.125 33.4687ZM7.96875 47.8125C8.06529 46.4353 8.51101 45.1055 9.26388 43.9483C10.0167 42.7911 11.052 41.8447 12.2719 41.1984L11.3156 41.4375C3.1875 43.0312 3.1875 49.4062 3.1875 49.4062H47.8125C47.7989 48.8672 47.7186 48.3318 47.5734 47.8125H7.96875Z" fill="#40436D"/>
<path d="M39.0469 13.5469C39.0469 27.2531 41.3578 28.6078 44.625 31.875C40.4496 32.8901 36.1718 33.4248 31.875 33.4688V35.0625C31.875 36.6563 31.875 39.8438 39.8438 41.4375C47.8125 43.0313 47.8125 49.4063 47.8125 49.4063H3.1875C3.1875 49.4063 3.1875 43.0313 11.3156 41.4375C19.4437 39.8438 19.125 36.6563 19.125 35.0625V33.4688C14.8283 33.4234 10.5507 32.8887 6.375 31.875C9.64219 28.6078 12.75 27.2531 12.75 13.5469C12.75 13.5469 12.75 2.39064 22.3125 2.39064C22.3125 2.39064 39.0469 -2.78905 39.0469 13.5469Z" stroke="#40436D" stroke-width="2" stroke-linecap="round" stroke-linejoin="round"/>
<path d="M55 36C53.4681 36.0422 51.9837 36.5406 50.7367 37.4313C49.4897 38.3221 48.5368 39.5646 48 41C47.4632 39.5646 46.5104 38.3221 45.2633 37.4313C44.0163 36.5406 42.5319 36.0422 41 36C40.077 35.9865 39.1607 36.1584 38.3054 36.5054C37.45 36.8524 36.6729 37.3675 36.0202 38.0202C35.3675 38.6729 34.8524 39.45 34.5054 40.3054C34.1584 41.1607 33.9865 42.077 34 43C34 52 48 62 48 62C48 62 62 52 62 43C62.0135 42.077 61.8416 41.1607 61.4946 40.3054C61.1476 39.45 60.6325 38.6729 59.9798 38.0202C59.3271 37.3675 58.55 36.8524 57.6946 36.5054C56.8393 36.1584 55.923 35.9865 55 36Z" fill="#D4D7FF"/>
<path opacity="0.15" d="M38 42C37.9803 40.7992 38.2744 39.6141 38.8532 38.5618C39.432 37.5095 40.2754 36.6264 41.3 36H41C40.077 35.9865 39.1607 36.1584 38.3054 36.5054C37.45 36.8524 36.6729 37.3675 36.0202 38.0202C35.3675 38.6729 34.8524 39.45 34.5054 40.3054C34.1584 41.1607 33.9865 42.077 34 43C34 52 48 62 48 62L50.6 59.9C47.1 57.2 38 49.3 38 42Z" fill="#40436D"/>
<path d="M55 36C53.4681 36.0422 51.9837 36.5406 50.7367 37.4313C49.4897 38.3221 48.5368 39.5646 48 41C47.4632 39.5646 46.5104 38.3221 45.2633 37.4313C44.0163 36.5406 42.5319 36.0422 41 36C40.077 35.9865 39.1607 36.1584 38.3054 36.5054C37.45 36.8524 36.6729 37.3675 36.0202 38.0202C35.3675 38.6729 34.8524 39.45 34.5054 40.3054C34.1584 41.1607 33.9865 42.077 34 43C34 52 48 62 48 62C48 62 62 52 62 43C62.0135 42.077 61.8416 41.1607 61.4946 40.3054C61.1476 39.45 60.6325 38.6729 59.9798 38.0202C59.3271 37.3675 58.55 36.8524 57.6946 36.5054C56.8393 36.1584 55.923 35.9865 55 36Z" stroke="#40436D" stroke-width="2" stroke-linecap="round" stroke-linejoin="round"/>
</svg>
