<svg width="158" height="40" viewBox="0 0 158 40" fill="none" xmlns="http://www.w3.org/2000/svg">
<g clip-path="url(#clip0_219_642)">
<path d="M25.8315 27.1886L25.969 27.3258C28.8387 30.6234 28.8445 35.4866 25.9109 38.5213L25.9477 38.558L31.5845 32.9313C31.5845 32.9313 35.0313 29.4907 36.9135 27.6119L37.3375 27.1886C40.5152 24.0166 40.5152 18.8731 37.3375 15.7031C35.8581 14.2263 31.5845 9.96037 31.5845 9.96037C31.5845 9.96037 27.5297 14.0079 25.8315 15.7031C22.6539 18.875 22.6539 24.0186 25.8315 27.1886Z" fill="#737FFF"/>
<path d="M13.8897 27.1886L13.7523 27.3258C10.8825 30.6234 10.8767 35.4866 13.8104 38.5213L13.7736 38.558L8.13672 32.9313C8.13672 32.9313 4.68994 29.4907 2.80777 27.6119C2.65479 27.4592 2.51343 27.3181 2.3837 27.1886C-0.793925 24.0166 -0.793925 18.8731 2.3837 15.7031C3.8631 14.2263 8.13672 9.96037 8.13672 9.96037C8.13672 9.96037 12.1915 14.0079 13.8897 15.7031C17.0674 18.875 17.0674 24.0186 13.8897 27.1886Z" fill="#737FFF"/>
<path d="M19.8616 40C23.6335 40 26.6912 36.9477 26.6912 33.1826C26.6912 29.4174 23.6335 26.3651 19.8616 26.3651C16.0897 26.3651 13.0319 29.4174 13.0319 33.1826C13.0319 36.9477 16.0897 40 19.8616 40Z" fill="#737FFF"/>
<path d="M14.1066 13.8842C15.586 15.361 19.8596 19.6269 19.8596 19.6269C19.8596 19.6269 23.9145 15.5794 25.6127 13.8842C28.7903 10.7123 28.7903 5.56876 25.6127 2.39876C25.5701 2.35624 25.5236 2.30985 25.4752 2.26153C25.4481 2.2306 25.421 2.19774 25.3939 2.16681C23.9396 0.823427 21.9955 0 19.8577 0C17.7199 0 15.9171 0.763506 14.4842 2.02184C14.3487 2.15715 14.2228 2.28279 14.1066 2.39876C10.929 5.5707 10.929 10.7142 14.1066 13.8842Z" fill="#737FFF"/>
<path d="M61.3236 13.5537C60.1734 12.9042 58.8896 12.5756 57.5089 12.5756C56.1283 12.5756 54.8445 12.9042 53.6943 13.5537C52.5421 14.2051 51.6242 15.1078 50.9659 16.2366C50.3075 17.3674 49.9725 18.6315 49.9725 20C49.9725 21.3685 50.3056 22.6326 50.9659 23.7634C51.6242 24.8942 52.5421 25.7969 53.6943 26.4463C54.8445 27.0958 56.1283 27.4244 57.5089 27.4244C58.8896 27.4244 60.1734 27.0958 61.3236 26.4463C62.4758 25.7969 63.3936 24.8942 64.052 23.7634C64.7104 22.6326 65.0454 21.3685 65.0454 20C65.0454 18.6315 64.7123 17.3674 64.052 16.2366C63.3936 15.1078 62.4758 14.2032 61.3236 13.5537ZM62.3073 20C62.3073 20.8949 62.0924 21.7261 61.6703 22.4645C61.2481 23.2048 60.6653 23.7963 59.9352 24.2234C59.2091 24.6506 58.3919 24.8671 57.5089 24.8671C56.6259 24.8671 55.8088 24.6506 55.0826 24.2234C54.3546 23.7963 53.7698 23.2029 53.3476 22.4645C52.9255 21.7242 52.7106 20.8949 52.7106 20C52.7106 19.1051 52.9255 18.2758 53.3476 17.5355C53.7698 16.7952 54.3526 16.2037 55.0826 15.7766C55.8107 15.3494 56.6259 15.1329 57.5089 15.1329C58.3919 15.1329 59.2072 15.3494 59.9352 15.7766C60.6633 16.2057 61.2481 16.7971 61.6703 17.5355C62.0924 18.2758 62.3073 19.1051 62.3073 20Z" fill="#40436D"/>
<path d="M77.6784 24.0089L72.8065 12.7728H69.8283L76.1371 27.2272H79.121L85.4511 12.7728H82.5523L77.6784 24.0089Z" fill="#40436D"/>
<path d="M101.781 13.5537C100.63 12.9042 99.3467 12.5756 97.966 12.5756C96.5854 12.5756 95.3015 12.9042 94.1513 13.5537C92.9992 14.2051 92.0813 15.1078 91.4229 16.2366C90.7646 17.3674 90.4296 18.6315 90.4296 20C90.4296 21.3685 90.7626 22.6326 91.4229 23.7634C92.0813 24.8942 92.9992 25.7969 94.1513 26.4463C95.3015 27.0958 96.5854 27.4244 97.966 27.4244C99.3467 27.4244 100.63 27.0958 101.781 26.4463C102.933 25.7969 103.851 24.8942 104.509 23.7634C105.167 22.6326 105.502 21.3666 105.502 20C105.502 18.6334 105.169 17.3674 104.509 16.2366C103.851 15.1078 102.933 14.2032 101.781 13.5537ZM102.764 20C102.764 20.8949 102.549 21.7261 102.127 22.4645C101.705 23.2048 101.122 23.7963 100.392 24.2234C99.6662 24.6506 98.849 24.8671 97.966 24.8671C97.083 24.8671 96.2659 24.6506 95.5397 24.2234C94.8116 23.7963 94.2268 23.2029 93.8047 22.4645C93.3826 21.7242 93.1676 20.8949 93.1676 20C93.1676 19.1051 93.3826 18.2758 93.8047 17.5355C94.2268 16.7952 94.8097 16.2037 95.5397 15.7766C96.2678 15.3494 97.083 15.1329 97.966 15.1329C98.849 15.1329 99.6642 15.3494 100.392 15.7766C101.12 16.2057 101.705 16.7971 102.127 17.5355C102.549 18.2758 102.764 19.1051 102.764 20Z" fill="#40436D"/>
<path d="M115.469 12.7728H112.83V27.2272H122.771V24.6719H115.469V12.7728Z" fill="#40436D"/>
<path d="M133.826 24.0089L128.952 12.7728H125.976L132.285 27.2272H135.267L141.599 12.7728H138.698L133.826 24.0089Z" fill="#40436D"/>
<path d="M158 15.2895V12.7728H148.057V27.2272H158V24.7105H150.698V21.2583H157.407V18.7417H150.698V15.2895H158Z" fill="#40436D"/>
</g>
<defs>
<clipPath id="clip0_219_642">
<rect width="158" height="40" fill="white"/>
</clipPath>
</defs>
</svg>
