<svg width="69" height="85" viewBox="0 0 69 85" fill="none" xmlns="http://www.w3.org/2000/svg">
<path d="M35.0285 83.2635C35.0702 83.2922 35.1178 83.3113 35.1678 83.3194C35.2178 83.3275 35.269 83.3244 35.3177 83.3104C35.3664 83.2963 35.4113 83.2716 35.4493 83.238C35.4872 83.2045 35.5173 83.1629 35.5373 83.1164C36.5479 80.7638 41.9406 68.375 43.625 68.375C46.375 68.375 51.7897 71.125 56 71.125C60.2103 71.125 59.421 61.3859 60.7369 57.4121C62.0527 53.4384 62.875 51.1119 62.875 49.125C68.1385 48.5956 67.1842 46.9511 66.5256 45.3616C65.867 43.7721 60.125 36.5671 60.125 35.375C60.125 34 61.5 29.7733 61.5 27.125C61.5 15.0745 54.625 1 31.2624 1C8.36863 1 1 17.8548 1 27.125C1 36.3953 3.60562 43.3294 6.5 46.375C9.39438 49.4206 12 52.2105 12 57.375C12.0483 60.3577 11.0783 63.2678 9.25 65.625L35.0285 83.2635Z" stroke="#F7CEB4" stroke-width="2" stroke-miterlimit="10" stroke-linecap="round" stroke-linejoin="round"/>
<path d="M24.375 9.25C32.5769 7.60963 48.7978 8.5955 51.875 23C53.063 28.6636 53.525 34.3259 40.875 35.375C28.225 36.4241 22.604 37.0525 21.625 39.5C20.646 41.9475 20.25 47.75 17.5 47.75C17.1276 47.7973 16.7494 47.7587 16.3942 47.6372C16.039 47.5157 15.7163 47.3145 15.4509 47.0491C15.1855 46.7837 14.9843 46.461 14.8628 46.1058C14.7413 45.7507 14.7027 45.3724 14.75 45C14.75 42.448 13.375 39.5 12 36.75C10.8533 34.4565 3.75 13.375 24.375 9.25Z" stroke="#F7CEB4" stroke-width="2" stroke-miterlimit="10" stroke-linecap="round" stroke-linejoin="round"/>
<path d="M36.7501 28.5C39.5001 25.75 45.0001 25.75 46.1468 30.4057C46.2996 30.8615 46.3603 31.3431 46.3252 31.8226C46.2901 32.302 46.16 32.7696 45.9425 33.1983C45.725 33.627 45.4244 34.0081 45.0581 34.3195C44.6919 34.6308 44.2674 34.8663 43.8093 35.012M32.6251 27.125C28.5001 28.5 27.3574 32.9852 29.875 35.375M40.7513 10.3582C42.4797 14.6771 41.2711 18.3621 38.1251 20.25M48.3001 15.575C49.2048 20.1978 47.7501 23 43.6251 23M31.6515 8.73438C32.8678 9.47654 33.7752 10.633 34.2067 11.9909C34.6382 13.3488 34.5648 14.8169 34.0001 16.125M31.25 21.625C29.875 18.875 25.2372 18.8283 23 21.625M20.0355 10.625C24.7202 11.2548 28.3172 14.8779 27.0934 19.5625M20.25 20.25C16.125 19.1321 16.1897 14.4351 16.466 12.3864M16.125 24.375C15.8156 23.8431 15.3719 23.4017 14.8384 23.0948C14.305 22.788 13.7003 22.6266 13.0849 22.6266C12.4695 22.6266 11.8649 22.788 11.3314 23.0948C10.7979 23.4017 10.3543 23.8431 10.0448 24.375M24.375 25.75C21.625 25.75 18.875 29.875 23 32.625M20.954 28.7104C17.2415 28.1507 12.0289 30.3026 11.6343 35.5854" stroke="#F7CEB4" stroke-width="2" stroke-miterlimit="10" stroke-linecap="round" stroke-linejoin="round"/>
</svg>
