<svg width="64" height="64" viewBox="0 0 64 64" fill="none" xmlns="http://www.w3.org/2000/svg">
<path d="M37.021 45C34.9818 44.9032 32.9419 45.178 31.001 45.811V61C35.001 59.965 43.139 59.941 49.01 61C49.009 48.215 45.054 45 37.021 45ZM13 61C18.873 59.941 27.001 59.965 31.001 61L31 45.809C29.0664 45.1744 27.0327 44.9002 25 45C16.969 45 13 48.215 13 61Z" fill="#F7CEB4"/>
<path d="M49.047 37.027V35C49.047 35 49.047 28.382 40.77 27.128C35.344 26.3 35 24.763 35 23.7V22C36.969 20.265 38 17.27 38 14V9C38 3.45 34.633 1 31.051 1C27.469 1 24 3.45 24 9V14C24 17.263 25.043 20.265 27 22V23.711C27 24.778 26.715 26.098 21.32 27.127C13 28.714 13.043 35 13.043 35V37L49.047 37.027Z" fill="#CF9595"/>
<path opacity="0.15" d="M27 23.7111C27 24.5331 26.8 25.5061 24.25 26.3791C24.589 26.2911 24.936 26.2001 25.309 26.1291C30.7 25.1001 31 23.7801 31 22.7131V21.0001C29 19.2651 28 16.2631 28 13.0001V8.00009C28 4.47109 29.381 2.20009 31.324 1.00909C31.224 1.00909 31.138 0.996094 31.039 0.996094C27.457 1.00009 24 3.45009 24 9.00009V14.0001C24 17.2631 25 20.2651 27 22.0001V23.7111ZM17 36.0001V34.0001C17 34.0001 16.985 28.8361 23.193 26.6921C22.637 26.8401 22.008 26.9861 21.276 27.1261C12.956 28.7141 13 35.0001 13 35.0001V37.0001L49 37.0291V36.0291L17 36.0001Z" fill="#40436D"/>
<path opacity="0.1" d="M13 61C15.6463 60.55 18.3223 60.2956 21.006 60.239C21.058 53.802 21.781 47.526 23.694 45.033C16.541 45.392 13 48.931 13 61ZM31 45.809V61C32.6424 60.6204 34.316 60.3911 36 60.315V45.023C34.3018 45.013 32.6132 45.2784 31 45.809Z" fill="#40436D"/>
<path d="M31.045 45.809C32.9785 45.1736 35.0122 44.8987 37.045 44.998C45.078 44.998 49.045 48.215 49.045 60.998C43.174 59.939 35.045 59.963 31.045 60.998M13.043 37V35C13.043 35 13 28.714 21.32 27.127C26.715 26.1 27 24.778 27 23.711V22C25.043 20.265 24 17.263 24 14V9C24 3.45 27.469 1 31.051 1C34.633 1 38 3.45 38 9V14C38 17.27 36.969 20.265 35 22V23.7C35 24.767 35.344 26.309 40.77 27.132C49.043 28.381 49.047 35 49.047 35V37.028M7 36.998H55M31 45.809C29.0664 45.1744 27.0327 44.9002 25 45C16.969 45 13 48.217 13 61C18.873 59.941 27 59.965 31 61V45.809Z" stroke="#40436D" stroke-width="2" stroke-linecap="round" stroke-linejoin="round"/>
</svg>
