<svg width="64" height="64" viewBox="0 0 64 64" fill="none" xmlns="http://www.w3.org/2000/svg">
<path d="M56 12C51.5309 12.0452 47.0992 11.1822 42.9737 9.46323C38.8481 7.74426 35.1148 5.20518 32 2C28.8852 5.20518 25.1519 7.74426 21.0264 9.46323C16.9008 11.1822 12.4691 12.0452 8 12C8 12 5.9 48 32 62C58.1 48 56 12 56 12Z" fill="#A1A9FF"/>
<path d="M8 12C8 12 5.9 48 32 62V2C28.8852 5.20518 25.1519 7.74426 21.0264 9.46323C16.9008 11.1822 12.4691 12.0452 8 12Z" fill="#D4D7FF"/>
<path d="M56 12C51.5309 12.0452 47.0992 11.1822 42.9737 9.46323C38.8481 7.74426 35.1148 5.20518 32 2C28.8852 5.20518 25.1519 7.74426 21.0264 9.46323C16.9008 11.1822 12.4691 12.0452 8 12C8 12 5.9 48 32 62C58.1 48 56 12 56 12Z" stroke="#2E4369" stroke-width="2" stroke-linecap="round" stroke-linejoin="round"/>
<path d="M45 24L31 38L24 31" stroke="#2E4369" stroke-width="2" stroke-linecap="round" stroke-linejoin="round"/>
</svg>
