<svg width="64" height="64" viewBox="0 0 64 64" fill="none" xmlns="http://www.w3.org/2000/svg">
<path d="M32 62C48.5685 62 62 48.5685 62 32C62 15.4315 48.5685 2 32 2C15.4315 2 2 15.4315 2 32C2 48.5685 15.4315 62 32 62Z" fill="#A1A9FF"/>
<path opacity="0.2" d="M60 38C60.0002 40.0104 59.833 42.0174 59.5 44C61.4927 39.4342 62.317 34.4441 61.8985 29.48C61.4801 24.5159 59.832 19.7342 57.1031 15.5664C54.3742 11.3987 50.6504 7.97606 46.2678 5.60756C41.8851 3.23907 36.9817 1.99925 32 2L28.2 2.3C36.951 3.32796 45.0212 7.52959 50.8818 14.109C56.7425 20.6885 59.9868 29.1888 60 38Z" fill="white"/>
<path d="M7.99999 28C7.99303 23.6657 8.92847 19.3817 10.7415 15.4448C12.5546 11.5079 15.2019 8.01224 18.5 5.20001C14.7153 7.11276 11.3791 9.80614 8.7115 13.1025C6.04386 16.3989 4.10536 20.2234 3.02386 24.3237C1.94236 28.424 1.74243 32.7071 2.43725 36.8903C3.13207 41.0736 4.70585 45.062 7.05481 48.5926C9.40376 52.1231 12.4745 55.1156 16.0646 57.3726C19.6546 59.6296 23.6823 61.0999 27.8821 61.6864C32.0819 62.273 36.3584 61.9625 40.4294 60.7755C44.5005 59.5885 48.2736 57.5519 51.5 54.8C46.9255 57.1051 41.8371 58.2005 36.7193 57.9818C31.6016 57.7631 26.6251 56.2377 22.264 53.5508C17.9028 50.864 14.3023 47.1052 11.8054 42.6325C9.3085 38.1599 7.99843 33.1224 7.99999 28Z" fill="#D4D7FF"/>
<path d="M22 28C23.1046 28 24 27.1046 24 26C24 24.8954 23.1046 24 22 24C20.8954 24 20 24.8954 20 26C20 27.1046 20.8954 28 22 28Z" fill="#40436D"/>
<path d="M42 28C43.1046 28 44 27.1046 44 26C44 24.8954 43.1046 24 42 24C40.8954 24 40 24.8954 40 26C40 27.1046 40.8954 28 42 28Z" fill="#40436D"/>
<path d="M32 62C48.5685 62 62 48.5685 62 32C62 15.4315 48.5685 2 32 2C15.4315 2 2 15.4315 2 32C2 48.5685 15.4315 62 32 62Z" stroke="#40436D" stroke-width="2" stroke-linecap="round" stroke-linejoin="round"/>
<path d="M48 40.9C46.3473 43.6872 43.9915 45.9915 41.1684 47.5822C38.3453 49.1728 35.1539 49.9941 31.9136 49.9637C28.6734 49.9333 25.4979 49.0524 22.7051 47.4091C19.9123 45.7658 17.6001 43.4177 16 40.6" stroke="#40436D" stroke-width="2" stroke-linecap="round" stroke-linejoin="round"/>
<path d="M22 28C23.1046 28 24 27.1046 24 26C24 24.8954 23.1046 24 22 24C20.8954 24 20 24.8954 20 26C20 27.1046 20.8954 28 22 28Z" stroke="#40436D" stroke-width="2" stroke-linecap="round" stroke-linejoin="round"/>
<path d="M42 28C43.1046 28 44 27.1046 44 26C44 24.8954 43.1046 24 42 24C40.8954 24 40 24.8954 40 26C40 27.1046 40.8954 28 42 28Z" stroke="#40436D" stroke-width="2" stroke-linecap="round" stroke-linejoin="round"/>
</svg>
