<svg width="64" height="64" viewBox="0 0 64 64" fill="none" xmlns="http://www.w3.org/2000/svg">
<path d="M49 22H48.5C46.9935 18.6583 44.4471 15.893 41.2407 14.1165C38.0343 12.34 34.3396 11.6475 30.7074 12.1423C27.0753 12.6371 23.7004 14.2926 21.086 16.862C18.4716 19.4314 16.7577 22.7771 16.2 26.4C14.6984 25.9855 13.1258 25.8946 11.5864 26.1335C10.047 26.3723 8.57594 26.9354 7.2705 27.7854C5.96506 28.6354 4.85506 29.753 4.01397 31.0643C3.17288 32.3755 2.61988 33.8504 2.39159 35.3914C2.1633 36.9324 2.26491 38.5043 2.68971 40.003C3.11451 41.5018 3.8528 42.8932 4.85571 44.0852C5.85862 45.2772 7.10328 46.2426 8.5073 46.9175C9.91131 47.5924 11.4427 47.9614 13 48H49C52.4478 48 55.7544 46.6304 58.1924 44.1924C60.6303 41.7544 62 38.4478 62 35C62 31.5522 60.6303 28.2456 58.1924 25.8076C55.7544 23.3697 52.4478 22 49 22Z" fill="#CF9595"/>
<path opacity="0.1" d="M16 30C15.9863 28.8263 16.0867 27.6541 16.3 26.5H16.1C14.5802 26.0261 12.9758 25.8878 11.3973 26.0945C9.81893 26.3012 8.30418 26.848 6.95771 27.6972C5.61124 28.5464 4.46512 29.6777 3.59852 31.0131C2.73191 32.3484 2.16545 33.8559 1.93827 35.4315C1.7111 37.0071 1.8286 38.6133 2.28268 40.139C2.73676 41.6648 3.51659 43.0738 4.56832 44.2688C5.62005 45.4638 6.91862 46.4163 8.37435 47.0604C9.83008 47.7046 11.4083 48.0252 13 48H34C29.2261 48 24.6477 46.1035 21.2721 42.7279C17.8964 39.3522 16 34.7739 16 30Z" fill="#CF9595"/>
<path d="M62 35C62 31.5522 60.6304 28.2456 58.1924 25.8076C55.7544 23.3696 52.4478 22 49 22H48.5C47.3778 19.5153 45.6745 17.337 43.5338 15.6488C41.3931 13.9606 38.8778 12.8121 36.2 12.3L35 12.1H33L29.8 12.4C26.6949 12.996 23.8193 14.4511 21.5 16.6C25.3744 15.7944 29.3915 16.0066 33.1596 17.2158C36.9276 18.4251 40.3179 20.5902 43 23.5C41.3789 24.3291 39.9485 25.4871 38.8 26.9C41.2708 25.9504 43.9501 25.6762 46.562 26.1055C49.174 26.5349 51.6245 27.6524 53.6613 29.343C55.6982 31.0335 57.2479 33.2362 58.151 35.7244C59.0542 38.2126 59.2782 40.8965 58.8 43.5C60.8618 41.1482 61.999 38.1275 62 35Z" fill="#F7CEB4"/>
<path d="M42 48H49C52.4478 48 55.7544 46.6304 58.1924 44.1924C60.6303 41.7544 62 38.4478 62 35C62 31.5522 60.6303 28.2456 58.1924 25.8076C55.7544 23.3697 52.4478 22 49 22H48.5C46.9935 18.6583 44.4471 15.893 41.2407 14.1165C38.0343 12.34 34.3396 11.6475 30.7074 12.1423C27.0753 12.6371 23.7004 14.2926 21.086 16.862C18.4716 19.4314 16.7577 22.7771 16.2 26.4C14.6984 25.9855 13.1258 25.8946 11.5864 26.1335C10.047 26.3723 8.57594 26.9354 7.2705 27.7854C5.96506 28.6354 4.85506 29.753 4.01397 31.0643C3.17288 32.3755 2.61988 33.8504 2.39159 35.3914C2.1633 36.9324 2.26491 38.5043 2.68971 40.003C3.11451 41.5018 3.8528 42.8932 4.85571 44.0852C5.85862 45.2772 7.10328 46.2426 8.5073 46.9175C9.91131 47.5924 11.4427 47.9614 13 48H22M32 52V30" stroke="#40436D" stroke-width="2" stroke-linecap="round" stroke-linejoin="round"/>
<path d="M40 38L32 30L24 38" stroke="#40436D" stroke-width="2" stroke-linecap="round" stroke-linejoin="round"/>
</svg>
